<svg width="73" height="32" fill="none" xmlns="http://www.w3.org/2000/svg"><path fill-rule="evenodd" clip-rule="evenodd" d="M23.347 2.225H50.67v14.932h-1.42c-.412 0-.733.114-.962.274v-.274h-2.084c-.343 0-.733.091-.939.274v-.274h-3.733v.274c-.32-.229-.801-.274-1.053-.274h-2.474v.274c-.229-.229-.755-.274-1.076-.274h-2.771l-.641.686-.596-.686h-4.122v4.488h4.054l.664-.687.595.687h2.52v-1.053h.228c.344 0 .733 0 1.077-.16v1.213h2.06v-1.168h.115c.115 0 .138 0 .138.138v1.03h6.275c.389 0 .801-.091 1.03-.275v.275h1.993c.412 0 .824-.069 1.122-.206v8.222H23.347V16.126h1.329l.298-.733h.664l.274.733H28.5v-.55l.23.55h1.35l.23-.573v.573h6.412v-1.191h.114c.092 0 .115.023.115.16v1.031h3.32v-.275c.275.137.688.275 1.237.275h1.397l.298-.733h.664l.298.733h2.68v-.687l.412.687h2.152v-4.489h-2.13v.527l-.32-.527h-2.176v.527l-.275-.527h-2.954c-.504 0-.94.069-1.282.252v-.252h-2.038v.252c-.23-.183-.527-.252-.87-.252H29.92l-.504 1.145-.526-1.145h-2.336v.527l-.275-.527h-1.993l-.939 2.13V2.225zm7.031 10.053h1.26v3.207h-.779v-2.52l-1.122 2.52h-.664l-1.122-2.52v2.52h-1.558l-.297-.71h-1.603l-.298.71h-.825l1.375-3.207h1.145l1.305 3.023v-3.023h1.237l1.007 2.176.94-2.176zm17.245 3.207h1.099v-3.207h-.778V14.5l-1.352-2.222h-1.19v3.024l-1.283-3.023h-1.145l-1.1 2.519h-.343c-.206 0-.412-.046-.527-.16-.137-.16-.206-.413-.206-.756 0-.344.069-.596.206-.733.16-.138.321-.183.596-.183h.733v-.688H41.6c-.527 0-.94.115-1.168.367-.343.343-.412.779-.412 1.26 0 .572.137.938.39 1.213.274.275.755.367 1.121.367h.894l.297-.71h1.603l.298.71h1.557V13.08l1.443 2.405zm-.893 3.572c.435 0 .71.092.893.252.138.16.229.367.229.687 0 .687-.435 1.008-1.214 1.008H45.15v-.687h1.488a.521.521 0 00.298-.069.291.291 0 00.092-.206.35.35 0 00-.092-.229c-.046-.046-.138-.069-.275-.069l-.138-.003c-.682-.018-1.465-.038-1.465-.981 0-.459.275-.962 1.1-.962h1.534v.687h-1.42c-.138 0-.23 0-.298.045-.091.07-.114.138-.114.252 0 .115.068.184.16.23h.004c.09.023.18.045.294.045h.412zm2.908 1.947c.779 0 1.214-.32 1.214-1.008 0-.32-.091-.526-.229-.687-.183-.16-.458-.252-.893-.252h-.412c-.114 0-.205-.022-.296-.045h-.002c-.092-.046-.16-.115-.16-.23 0-.114.046-.183.114-.252.069-.045.16-.045.298-.045h1.42v-.687h-1.535c-.801 0-1.099.503-1.099.962 0 .943.783.963 1.465.98l.138.004c.138 0 .23.023.275.07a.348.348 0 01.092.228.29.29 0 01-.092.206c-.046.046-.16.069-.298.069H48.15v.687h1.488zm-4.946-.664h-1.81v-.641h1.764v-.641h-1.763v-.596h1.809v-.664h-2.565v3.206h2.565v-.664zm-4.329-2.542c.39 0 .687.023.94.16.251.137.389.344.389.71 0 .504-.344.779-.55.847.183.069.32.183.39.275.091.16.114.298.114.595v.619h-.756v-.39c0-.206 0-.48-.137-.64-.115-.115-.275-.138-.55-.138h-.825v1.168H38.6v-3.206h1.763zm-3.412 0h-2.45l-.985 1.053-.94-1.053h-3.09v3.206h3.045l.985-1.054.939 1.054h1.489v-1.076h.961c.664 0 1.329-.184 1.329-1.077 0-.87-.688-1.053-1.283-1.053zm3.366 1.374c.138 0 .252 0 .367-.046a.4.4 0 00.16-.32.291.291 0 00-.16-.276c-.092-.068-.23-.068-.367-.068h-.938v.733l.938-.023zm-3.366.114h-1.008v-.824h1.008c.275 0 .458.114.458.39 0 .274-.183.434-.458.434zm-1.764-1.145l-1.19 1.26 1.19 1.328v-2.588zm-3.045 2.199H30.24v-.641h1.694v-.641H30.24v-.596h1.923l.848.939-.87.939zm7.488-8.062h-.778v3.207h.779v-3.207zm-2.541 0c.389 0 .663 0 .915.138.252.16.413.366.413.733a.91.91 0 01-.55.847c.16.069.298.183.366.275.115.16.137.298.137.572v.642h-.778v-.482c.003-.178.007-.408-.114-.549-.115-.115-.298-.137-.573-.137h-.824v1.168h-.756v-3.207h1.764zm-2.314 2.543H32.99v-.642h1.763v-.664H32.99v-.572h1.786v-.664H32.21v3.206h2.565v-.664zm9.276-.733l-.527-1.26-.527 1.26h1.054zm-7.031-.435c.16 0 .275 0 .39-.069.09-.046.136-.16.136-.298 0-.137-.046-.229-.137-.297-.092-.046-.252-.046-.39-.046h-.938v.71h.939zm-12.253.435l.527-1.26.527 1.26h-1.054z" fill="#0077A6"/></svg>