<svg width="24" height="24" xmlns="http://www.w3.org/2000/svg">
    <symbol id="return-arrow" viewBox="0 0 24 24">
        <path d="M16.66 18.151c.396.095.745-.012 1.059-.331a985.95 985.95 0 0 1 4.63-4.63c.315-.313.55-.557.651-.876v-.426c-.1-.32-.325-.574-.65-.875-1.59-1.497-3.092-3.1-4.631-4.649-.32-.319-.663-.425-1.059-.33a1.032 1.032 0 0 0-.774.727c-.107.378 0 .78.295 1.082 1.044 1.055 2.111 2.089 3.117 3.182-5.745 0-11.489.006-17.233.006-.55 0-1.006.408-1.065.952v.112a1.065 1.065 0 0 0 1.07 1.059c5.743.017 11.485 0 17.228 0-1.007 1.094-2.078 2.125-3.123 3.181a1.11 1.11 0 0 0-.295 1.083c.112.378.396.644.78.733z"></path>
    </symbol>
    <symbol id="3x" viewBox="0 0 24 24">
        <path fill-rule="evenodd" clip-rule="evenodd" d="M16.6637 15.7881L15.6927 14.0742L14.7228 15.7881H12.5476L14.5872 12.8136L12.5846 9.88924H14.7587L15.6927 11.5541L16.6267 9.88924H18.803L16.8117 12.8136L18.8389 15.7881H16.6637ZM8.84767 15.9711C6.72179 15.9711 5.54224 14.7228 5.54224 12.9117H7.53245C7.53245 13.8418 8.06168 14.3811 8.82301 14.3811C9.56079 14.3811 9.96668 13.8418 9.96668 13.2545C9.96668 12.5444 9.63367 12.0676 8.70079 12.0676H7.92601V10.5379H8.70079C9.58545 10.5379 9.84334 10.1091 9.84334 9.48492C9.84334 8.83619 9.43745 8.53025 8.86001 8.53025C8.01234 8.53025 7.76567 9.03271 7.76567 9.77858H5.77546C5.77546 8.32256 6.68479 7.03738 8.81067 7.03738C10.3961 7.03738 11.81 7.83238 11.81 9.43691C11.81 10.4028 11.2326 11.1006 10.5441 11.3329C11.3178 11.6142 11.9457 12.3121 11.9457 13.4008C11.9457 15.0288 10.4825 15.9711 8.84767 15.9711ZM12.0084 1C5.83482 1 1 5.8281 1 11.9983C1 18.1652 5.83482 23 12.0084 23C18.1674 23 23 18.1652 23 11.9983C23 5.8281 18.1674 1 12.0084 1Z"/>
    </symbol>
    <symbol id="money-box" viewBox="0 0 24 24">
        <path fill-rule="evenodd" clip-rule="evenodd" d="M11.75 6.5a2.75 2.75 0 1 0 0-5.5 2.75 2.75 0 0 0 0 5.5zm3.4-1.167a.833.833 0 0 1 .394-.42 5.143 5.143 0 0 1 1.837-.456l1.574-.093a.618.618 0 0 1 .53.988 4.571 4.571 0 0 0-.914 2.743c0 .066.024.128.066.178.503.593.92 1.261 1.23 1.986.159.368.47.657.862.744l1.196.278c.41.09.736.399.85.802l.05.168a4.573 4.573 0 0 1 .038 2.365l-.113.453c-.1.399-.406.713-.802.823l-1.685.483a1.253 1.253 0 0 0-.736.59 7.222 7.222 0 0 1-1.92 2.155c-.221.164-.391.39-.466.655l-.532 1.892a1.143 1.143 0 0 1-1.1.833h-1.66a.849.849 0 0 1-.849-.849v-.143a.725.725 0 0 0-.83-.717 9.75 9.75 0 0 1-2.84 0 .725.725 0 0 0-.83.717v.143c0 .47-.38.849-.849.849h-1.66c-.512 0-.962-.34-1.1-.833l-.532-1.892a1.25 1.25 0 0 0-.465-.655A7.193 7.193 0 0 1 1 13.35c0-4.07 3.1-7.42 7.068-7.812.226-.022.435.103.56.29.227.34.507.64.83.89.074.058.047.182-.046.199l-.501.091a.5.5 0 0 0 .178.984l.502-.091a12.05 12.05 0 0 1 4.318 0l.502.09a.5.5 0 1 0 .178-.983l-.5-.091c-.094-.017-.121-.141-.047-.199.472-.365.854-.84 1.108-1.385zm3.35 5.417a.75.75 0 1 1-1.5 0 .75.75 0 0 1 1.5 0z"/>
    </symbol>
    <symbol id="wishlist" viewBox="0 0 24 24">
        <path fill-rule="evenodd" clip-rule="evenodd" d="M20.583 4.453C19.638 3.484 18.332 3 16.665 3a4.26 4.26 0 0 0-1.412.252c-.48.168-.926.395-1.339.68-.413.285-.768.552-1.066.802-.297.25-.58.516-.848.797-.268-.281-.55-.547-.848-.797-.298-.25-.653-.517-1.066-.802a5.603 5.603 0 0 0-1.34-.68A4.26 4.26 0 0 0 7.336 3c-1.667 0-2.973.484-3.918 1.453C2.472 5.422 2 6.766 2 8.484c0 .524.088 1.063.262 1.617.175.555.374 1.028.597 1.418.224.39.477.772.76 1.143.282.37.489.627.619.767s.232.243.307.305l6.964 7.055c.134.14.298.211.491.211s.357-.07.491-.211l6.953-7.032C21.148 11.97 22 10.211 22 8.484c0-1.719-.472-3.062-1.417-4.03zm-2.11 8.203L12 19.206l-6.484-6.562c-1.392-1.46-2.087-2.847-2.087-4.16 0-.633.08-1.191.24-1.675.16-.485.364-.87.613-1.155a2.96 2.96 0 0 1 .91-.697 3.9 3.9 0 0 1 1.05-.363A6.096 6.096 0 0 1 7.334 4.5c.387 0 .804.1 1.25.299.446.199.857.449 1.233.75.376.3.698.582.966.843.267.262.49.502.67.721a.656.656 0 0 0 .546.258c.23 0 .413-.086.547-.258.178-.219.402-.459.67-.72.267-.262.59-.543.965-.844a5.644 5.644 0 0 1 1.233-.75c.447-.2.864-.299 1.25-.299.387 0 .752.031 1.094.094.342.062.692.183 1.05.363.356.18.66.412.909.697s.454.67.614 1.155c.16.484.24 1.042.24 1.675 0 1.313-.7 2.703-2.099 4.172z"/>
    </symbol>
    <symbol id="info" viewBox="0 0 24 24">
        <path fill-rule="evenodd" clip-rule="evenodd" d="M12 1a11 11 0 1 0 11 11A11.018 11.018 0 0 0 12 1zm9.39 11A9.39 9.39 0 1 1 12 2.61 9.426 9.426 0 0 1 21.39 12zM12 7.976a1.341 1.341 0 1 0 0-2.683 1.341 1.341 0 0 0 0 2.683zm.805 8.585h.805a.805.805 0 1 1 0 1.61h-3.22a.805.805 0 1 1 0-1.61h.805v-5.902h-.268a.805.805 0 1 1 0-1.61H12a.805.805 0 0 1 .805.805v6.707z"/>
    </symbol>
    <symbol id="info-small" viewBox="0 0 24 24">
        <path fill-rule="evenodd" clip-rule="evenodd" d="M12 1a11 11 0 1 0 11 11A11.018 11.018 0 0 0 12 1zm9.39 11A9.39 9.39 0 1 1 12 2.61 9.426 9.426 0 0 1 21.39 12zM12 7.976a1.341 1.341 0 1 0 0-2.683 1.341 1.341 0 0 0 0 2.683zm.805 8.585h.805a.805.805 0 1 1 0 1.61h-3.22a.805.805 0 1 1 0-1.61h.805v-5.902h-.268a.805.805 0 1 1 0-1.61H12a.805.805 0 0 1 .805.805v6.707z"/>
    </symbol>
    <symbol id="save" viewBox="0 0 24 24">
        <path fill-rule="evenodd" clip-rule="evenodd" d="M19.2617 8.78758V1.64453C19.2617 1.28853 18.9732 1 18.6172 1H13.2031V5.90112C13.2031 6.36455 12.7086 6.72122 12.2258 6.453L10.1309 5.38852L7.99266 6.47516C7.56348 6.69252 7.05977 6.37529 7.0601 5.90112L7.05859 1H1.64453C1.28853 1 1 1.28853 1 1.64453V18.6172C1 18.9732 1.28853 19.2617 1.64453 19.2617H8.78758C7.99249 17.3026 8.00089 15.1235 8.80974 13.1709C10.5011 9.08736 15.1659 7.1254 19.2617 8.78758ZM10.4204 4.09325L11.9141 4.85242V1H8.34766V4.85242L9.83981 4.09409C10.0159 4.00479 10.2306 3.99757 10.4204 4.09325ZM16.2432 9.48633C18.1089 9.48633 19.7982 10.2426 21.0209 11.4654C22.2437 12.6882 23 14.3774 23 16.2432C23 18.1089 22.2437 19.7982 21.0209 21.0209C19.7982 22.2437 18.1089 23 16.2432 23C14.3774 23 12.6882 22.2437 11.4654 21.0209C10.2426 19.7982 9.48633 18.1089 9.48633 16.2432C9.48633 14.3774 10.2426 12.6882 11.4654 11.4654C12.6882 10.2426 14.3774 9.48633 16.2432 9.48633ZM17.1991 19.0898C17.8859 19.0898 18.5091 18.81 18.9603 18.3589C19.4346 17.8845 19.6914 17.2702 19.6914 16.5549C19.6914 15.1812 18.5727 14.0625 17.1991 14.0625H15.408L15.7863 13.6835C16.0365 13.4317 16.0354 13.0249 15.7838 12.7746C15.532 12.5244 15.1251 12.5255 14.8749 12.7771L13.3967 14.258C13.1464 14.5098 13.1474 14.9167 13.3992 15.1669L14.8802 16.6452C15.1319 16.8954 15.5389 16.8944 15.7891 16.6426C16.0394 16.391 16.0382 15.984 15.7865 15.7337L15.4036 15.3516H17.1991C17.53 15.3516 17.8308 15.4868 18.0489 15.705C18.2906 15.9466 18.4023 16.2395 18.4023 16.5975C18.4023 17.2595 17.861 17.8008 17.1991 17.8008H14.1914C13.8354 17.8008 13.5469 18.0893 13.5469 18.4453C13.5469 18.8013 13.8354 19.0898 14.1914 19.0898H17.1991Z"></path>
    </symbol>
    <symbol id="coupon" viewBox="0 0 24 24">
        <path fill-rule="evenodd" clip-rule="evenodd" d="M19 4.8V4.00452H1.92569C0.865031 4.00452 0.00463867 4.86491 0.00463867 5.92643V10.3633C0.701719 10.3633 1.26643 10.928 1.26643 11.6251C1.26643 12.3222 0.701719 12.8869 0.00463867 12.8869V17.323C0.00463867 18.3845 0.865031 19.2449 1.92655 19.2449H19V19.2H20V19.2449H21.7818C22.8433 19.2449 23.7037 18.3845 23.7037 17.323V12.8861C23.0066 12.8861 22.4419 12.3214 22.4419 11.6243C22.441 10.928 23.0066 10.3625 23.7028 10.3625V5.92643C23.7028 4.86491 22.8424 4.00452 21.7809 4.00452H20V4.8L19 4.8ZM19 8V6.4H20V8H19ZM19 11.2V9.6H20V11.2H19ZM19 14.4V12.8H20V14.4H19ZM19 17.6V16H20V17.6H19ZM6.37258 9.20963C6.37258 8.57637 6.88594 8.06301 7.5192 8.06301C8.15246 8.06301 8.66581 8.57637 8.66581 9.20963C8.66581 9.84289 8.15246 10.3562 7.5192 10.3562C6.88594 10.3562 6.37258 9.84289 6.37258 9.20963ZM7.5192 6.60181C6.07894 6.60181 4.91138 7.76937 4.91138 9.20963C4.91138 10.6499 6.07894 11.8174 7.5192 11.8174C8.95946 11.8174 10.127 10.6499 10.127 9.20963C10.127 7.76937 8.95946 6.60181 7.5192 6.60181ZM15.3798 7.969C15.6715 7.6903 15.6821 7.22782 15.4034 6.93604C15.1247 6.64426 14.6623 6.63367 14.3705 6.91237L5.54652 15.3409C5.25474 15.6197 5.24414 16.0821 5.52285 16.3739C5.80155 16.6657 6.26402 16.6763 6.5558 16.3976L15.3798 7.969ZM12.4401 13.527C12.0228 13.9442 12.0228 14.6207 12.4401 15.0379C12.8573 15.4552 13.5338 15.4552 13.951 15.0379C14.3682 14.6207 14.3682 13.9442 13.951 13.527C13.5338 13.1098 12.8573 13.1098 12.4401 13.527ZM11.4068 16.0712C10.419 15.0833 10.419 13.4817 11.4068 12.4938C12.3947 11.5059 13.9964 11.5059 14.9842 12.4938C15.9721 13.4817 15.9721 15.0833 14.9842 16.0712C13.9963 17.059 12.3947 17.059 11.4068 16.0712Z"/>
    </symbol>
</svg>
