<svg width="73" height="32" fill="none" xmlns="http://www.w3.org/2000/svg"><path fill-rule="evenodd" clip-rule="evenodd" d="M18.82 20.85h-1.632v.434h1.636v-.359c0-.016 0-.03-.002-.048l-.002-.027zm2.831.434h1.637v-.436H21.65v.436zm-8.934.001h1.635v-.435h-1.636v.435zm4.471-6.233h1.626v-.447h-1.626v.447zm4.464-.005h1.64v-.445h-1.64v.444zm-8.938.003h1.636v-.445h-1.636v.445zm.506 5.076h.6v-4.359h-.6v4.359zm8.932-.001h.602v-4.353h-.602v4.353zm-4.47 0h.61v-4.353h-.61v4.353zm-3.499-7.763l.004.02h7.66a3.03 3.03 0 01-.052-.026c-.026-.014-.044-.024-.063-.032l-.253-.105c-1.133-.471-2.264-.942-3.398-1.41a.235.235 0 00-.162.002c-.614.253-1.227.508-1.84.763l-.536.223-.942.391-.418.174zm-1.472 1.52H23.29V13.1H12.711v.782zm8.23 7.404V20.13h.494v-4.37h-.499v-1.153h-1.412v1.162h-.513v4.37h.524v1.148h1.407zm-3.976-1.153v-4.374h-.496v-1.156h-1.404v1.161h-.522v4.373h.526v1.148h1.405v-1.152h.49zM24 12.507v3.258h-.525l-.002.046-.003.072v4.158c-.002.048-.003.095.075.093.107-.004.213-.006.32-.008l.135-.003v1.875H12.002v-1.869h.493v-4.37h-.487a2.84 2.84 0 00-.005-.068v-.715c0-.796 0-1.592-.003-2.388 0-.083.044-.102.103-.127h.002l4.962-2.07c.209-.087.417-.177.625-.267l.286-.124h.047l.025.014c.018.01.037.021.056.03l1.552.647 1.994.832 1.618.678.73.306zm-6.35-.838c.003-.176.172-.334.355-.332a.36.36 0 01.348.366c-.002.183-.17.34-.362.337a.358.358 0 01-.341-.37zM43.5 10c.4 0 .6.3.6.6 0 .5-.4.8-.8.8s-.6-.3-.6-.6c0-.5.4-.8.8-.8zm-1 1.9h1.3l-.9 3.9h-1.2l.8-3.9zm-14.4-1.5h2.8c1 0 1.5.6 1.5 1.3 0 .7-.6 1.3-1.2 1.4.5.1.8.6.8 1.1 0 .7-.5 1.6-1.9 1.6H27l1.1-5.4zm2 3.2h-1.3l-.2 1H30c.4 0 .6-.2.6-.6 0-.2-.2-.4-.5-.4zm-.8-2.1h1.2c.2 0 .4.2.5.4 0 .2-.2.5-.6.5h-1.3l.2-.9zm26.6 5.6c0-.3-.2-.6-.6-.6-.3 0-.8.3-.8.8 0 .3.2.6.6.6.4 0 .8-.3.8-.8zm-.3 1.3h-1.2l-.8 3.8h1.2l.8-3.8zm-24.7-1.5h-2.8L27 22.3h3.1c1.4 0 1.9-.9 1.9-1.6 0-.5-.3-1-.8-1.1.6-.1 1.2-.7 1.2-1.4s-.5-1.3-1.5-1.3zm-2.1 3.2h1.3c.3 0 .5.2.5.4 0 .4-.2.6-.6.6h-1.4l.2-1zm1.7-2.1h-1.2l-.2.9h1.3c.4 0 .6-.3.6-.5-.1-.2-.3-.4-.5-.4zm5.3.4H37l-.9 3.9h-1.2l.1-.4c-.3.4-.7.5-1.1.5-.9 0-1.4-.6-1.4-1.6 0-1.1.7-2.5 2-2.5.5 0 .9.2 1.2.6l.1-.5zm-1.3 2.8c.3 0 .5-.1.7-.4l.3-1.2c-.2-.2-.4-.4-.8-.4-.6 0-1 .5-1 1.1 0 .6.4.9.8.9zm5.7-1.1v-.3c0-.3-.3-.4-.5-.4-.4 0-.6.2-.8.4l-.6 2.5h-1.2l.9-3.9h1.2l-.1.5c.3-.3.7-.6 1.3-.6.8 0 1.2.4 1.2 1v.3l-.6 2.6h-1.2l.4-2.1zm5.6-1c-.2-.5-.8-.8-1.6-.8-1.2 0-2.2 1-2.3 2.3 0 1.1.8 1.8 2 1.8.7 0 1.2-.3 1.5-.6l-.7-.8c-.1.1-.4.3-.7.3-.4 0-.8-.3-.8-.8 0-.6.4-1.1 1-1.1.3 0 .6.2.7.4l.9-.7zm4.7-.7h-1.2l-.1.5c-.3-.4-.7-.6-1.2-.6-1.3 0-2 1.4-2 2.5 0 1 .5 1.6 1.4 1.6.4 0 .8-.1 1.1-.5l-.1.4h1.2l.9-3.9zm-1.8 2.4c-.2.3-.4.4-.7.4-.5 0-.8-.3-.8-.9 0-.6.4-1.1 1-1.1.4 0 .6.2.8.4l-.3 1.2zm3.9-2.4h-1.2l-.8 3.8h1.2l.4-2.3c.2-.2.6-.4.9-.4h.4l.3-1.2c-.5 0-1 .2-1.3.6l.1-.5zm5.5-.1c1.3 0 2 .8 2 1.8 0 1.2-.9 2.3-2.3 2.3-1.3 0-2-.8-2-1.8 0-1.3.9-2.3 2.3-2.3zm-.1 1c-.6 0-1 .5-1 1.1 0 .5.3.8.8.8.6 0 1-.5 1-1.1 0-.5-.3-.8-.8-.8zm-23.3-7.5c1.3 0 2 .8 2 1.8 0 1.2-.9 2.3-2.3 2.3-1.3 0-2-.8-2-1.8.1-1.2 1-2.3 2.3-2.3zm0 1.1c-.6 0-1 .5-1 1.1 0 .5.3.8.8.8.6 0 1-.5 1-1.1 0-.6-.3-.8-.8-.8zm5.3.7v-.3c0-.3-.3-.4-.5-.4-.4 0-.6.2-.8.4l-.6 2.5h-1.2l.9-3.9H39l-.1.5c.3-.3.7-.6 1.3-.6.8 0 1.2.4 1.2 1v.3l-.6 2.6h-1.2l.4-2.1zm9-3c0-.3-.2-.6-.6-.6-.4 0-.8.3-.8.8 0 .3.2.6.6.6.4 0 .8-.3.8-.8zm-4.3 2.3h-.6l.2-1.1h.6v-.2c.2-.8.7-1.3 1.6-1.3.3 0 .6 0 .9.2l-.4.8c-.1-.1-.2-.1-.3-.1-.3 0-.4.2-.5.4v.2h.8l-.2 1.1H46l-.6 2.8h-1.2l.5-2.8zm2.8-1h1.2l-.9 3.8h-1.2l.9-3.8zm5.3.7c-.2-.5-.8-.8-1.6-.8-1.3 0-2.3 1-2.3 2.3 0 1.1.8 1.8 2 1.8.7 0 1.2-.3 1.5-.6l-.7-.8c-.1.1-.4.3-.7.3-.4 0-.8-.3-.8-.8 0-.6.4-1.1 1-1.1.3 0 .6.2.7.4l.9-.7zm4.3 1c0-1-.7-1.8-2-1.8s-2.2 1.1-2.3 2.3c0 1 .7 1.8 2 1.8 1.4 0 2.3-1.1 2.3-2.3zm-3 .4c0-.6.4-1.1 1-1.1.5 0 .8.2.8.8 0 .6-.4 1.1-1 1.1-.5 0-.8-.3-.8-.8z" fill="#1E5FA7"/></svg>