<svg width="174" height="22" viewBox="0 0 174 22" fill="none" xmlns="http://www.w3.org/2000/svg">
<path fill-rule="evenodd" clip-rule="evenodd" d="M5.71781 14.7717C6.69988 14.7717 7.49601 15.5916 7.49601 16.6029L7.49601 22L13.8265 22L13.8265 14.7717L13.8265 10.1367C13.8265 9.12536 13.0304 8.30548 12.0483 8.30548L7.84239e-06 8.30547L7.29152e-06 14.7717L5.71781 14.7717Z" fill="#F85A00"/>
<path fill-rule="evenodd" clip-rule="evenodd" d="M16.2829 7.22829C15.3008 7.22829 14.5047 6.40842 14.5047 5.39705V0L8.17421 0V7.22829L8.17416 11.8633C8.17415 12.8746 8.97028 13.6945 9.95236 13.6945L22.0007 13.6945V7.22829L16.2829 7.22829Z" fill="#131C20"/>
<path d="M44.8424 16.2486H36.1198L34.4559 20.1851H30.0007L38.3743 1.81492H42.6685L51.0689 20.1851H46.5064L44.8424 16.2486ZM43.4736 13.0207L40.4945 5.98757L37.5155 13.0207H43.4736Z" fill="#131C20"/>
<path d="M60.9717 20.5C58.2879 20.5 56.1945 19.7739 54.6915 18.3218C53.2064 16.8697 52.4639 14.7965 52.4639 12.1022V1.81492H56.8118V11.9448C56.8118 15.2339 58.2074 16.8785 60.9986 16.8785C62.3584 16.8785 63.3961 16.4848 64.1118 15.6975C64.8275 14.8927 65.1854 13.6418 65.1854 11.9448V1.81492H69.4796V12.1022C69.4796 14.7965 68.7281 16.8697 67.2251 18.3218C65.74 19.7739 63.6556 20.5 60.9717 20.5Z" fill="#131C20"/>
<path d="M77.3531 5.27901H71.3413V1.81492H87.7128V5.27901H81.701V20.1851H77.3531V5.27901Z" fill="#131C20"/>
<path d="M98.8883 20.5C96.938 20.5 95.1757 20.0889 93.6011 19.2666C92.0445 18.4443 90.8189 17.3158 89.9242 15.8812C89.0475 14.4291 88.6092 12.802 88.6092 11C88.6092 9.19797 89.0475 7.57965 89.9242 6.14503C90.8189 4.69291 92.0445 3.55571 93.6011 2.73343C95.1757 1.91114 96.938 1.5 98.8883 1.5C100.839 1.5 102.592 1.91114 104.149 2.73343C105.705 3.55571 106.931 4.69291 107.826 6.14503C108.72 7.57965 109.167 9.19797 109.167 11C109.167 12.802 108.72 14.4291 107.826 15.8812C106.931 17.3158 105.705 18.4443 104.149 19.2666C102.592 20.0889 100.839 20.5 98.8883 20.5ZM98.8883 16.8785C99.9977 16.8785 101 16.6335 101.894 16.1436C102.789 15.6363 103.487 14.9365 103.988 14.0442C104.507 13.1519 104.766 12.1372 104.766 11C104.766 9.8628 104.507 8.84807 103.988 7.9558C103.487 7.06354 102.789 6.37247 101.894 5.8826C101 5.37523 99.9977 5.12155 98.8883 5.12155C97.779 5.12155 96.777 5.37523 95.8824 5.8826C94.9878 6.37247 94.281 7.06354 93.7622 7.9558C93.2612 8.84807 93.0107 9.8628 93.0107 11C93.0107 12.1372 93.2612 13.1519 93.7622 14.0442C94.281 14.9365 94.9878 15.6363 95.8824 16.1436C96.777 16.6335 97.779 16.8785 98.8883 16.8785Z" fill="#131C20"/>
<path d="M112.435 1.81492H120.97C123.009 1.81492 124.808 2.19982 126.364 2.96961C127.939 3.72191 129.156 4.78913 130.014 6.17127C130.891 7.55341 131.329 9.16298 131.329 11C131.329 12.837 130.891 14.4466 130.014 15.8287C129.156 17.2109 127.939 18.2868 126.364 19.0566C124.808 19.8089 123.009 20.1851 120.97 20.1851H112.435V1.81492ZM120.755 16.6948C122.634 16.6948 124.128 16.1874 125.237 15.1727C126.364 14.1404 126.928 12.7495 126.928 11C126.928 9.25046 126.364 7.86832 125.237 6.85359C124.128 5.82136 122.634 5.30525 120.755 5.30525H116.783V16.6948H120.755Z" fill="#131C20"/>
<path d="M143.707 20.5C141.756 20.5 139.994 20.0889 138.419 19.2666C136.863 18.4443 135.637 17.3158 134.743 15.8812C133.866 14.4291 133.427 12.802 133.427 11C133.427 9.19797 133.866 7.57965 134.743 6.14503C135.637 4.69291 136.863 3.55571 138.419 2.73343C139.994 1.91114 141.756 1.5 143.707 1.5C145.657 1.5 147.41 1.91114 148.967 2.73343C150.524 3.55571 151.749 4.69291 152.644 6.14503C153.538 7.57965 153.986 9.19797 153.986 11C153.986 12.802 153.538 14.4291 152.644 15.8812C151.749 17.3158 150.524 18.4443 148.967 19.2666C147.41 20.0889 145.657 20.5 143.707 20.5ZM143.707 16.8785C144.816 16.8785 145.818 16.6335 146.713 16.1436C147.607 15.6363 148.305 14.9365 148.806 14.0442C149.325 13.1519 149.584 12.1372 149.584 11C149.584 9.8628 149.325 8.84807 148.806 7.9558C148.305 7.06354 147.607 6.37247 146.713 5.8826C145.818 5.37523 144.816 5.12155 143.707 5.12155C142.597 5.12155 141.595 5.37523 140.701 5.8826C139.806 6.37247 139.099 7.06354 138.58 7.9558C138.079 8.84807 137.829 9.8628 137.829 11C137.829 12.1372 138.079 13.1519 138.58 14.0442C139.099 14.9365 139.806 15.6363 140.701 16.1436C141.595 16.6335 142.597 16.8785 143.707 16.8785Z" fill="#131C20"/>
<path d="M166.244 20.5C164.33 20.5 162.594 20.0976 161.038 19.2928C159.499 18.4705 158.282 17.3421 157.388 15.9075C156.511 14.4553 156.072 12.8195 156.072 11C156.072 9.18048 156.511 7.55341 157.388 6.11878C158.282 4.66667 159.499 3.53821 161.038 2.73343C162.594 1.91114 164.339 1.5 166.271 1.5C167.899 1.5 169.367 1.77993 170.673 2.33978C171.997 2.89963 173.106 3.70442 174.001 4.75414L171.209 7.27348C169.939 5.83886 168.365 5.12155 166.486 5.12155C165.323 5.12155 164.285 5.37523 163.373 5.8826C162.46 6.37247 161.744 7.06354 161.225 7.9558C160.725 8.84807 160.474 9.8628 160.474 11C160.474 12.1372 160.725 13.1519 161.225 14.0442C161.744 14.9365 162.46 15.6363 163.373 16.1436C164.285 16.6335 165.323 16.8785 166.486 16.8785C168.365 16.8785 169.939 16.1524 171.209 14.7003L174.001 17.2196C173.106 18.2868 171.997 19.1004 170.673 19.6602C169.349 20.2201 167.873 20.5 166.244 20.5Z" fill="#131C20"/>
</svg>
