<svg width="72" height="32" fill="none" xmlns="http://www.w3.org/2000/svg"><path fill-rule="evenodd" clip-rule="evenodd" d="M50.774 24.794v3.804h-.583v-.33c-.184.245-.464.398-.845.398-.75 0-1.339-.596-1.339-1.425 0-.828.589-1.425 1.339-1.425.38 0 .66.154.845.398v-1.42h.583zm-21.834 1.09v2.714h-.582v-.33c-.184.245-.464.398-.845.398-.75 0-1.339-.596-1.339-1.425 0-.828.589-1.425 1.34-1.425.38 0 .66.154.845.398v-.33h.581zm-2.166 1.357c0-.477.308-.87.811-.87.482 0 .807.376.807.87s-.325.869-.806.869c-.504 0-.812-.392-.812-.87zm25.161 1.045a.27.27 0 00-.191-.08v-.002a.266.266 0 00-.106.021.264.264 0 00-.144.144.28.28 0 00.057.298.278.278 0 00.193.08.263.263 0 00.191-.08.27.27 0 000-.38zm-.191.399a.209.209 0 00.19-.127.217.217 0 000-.165.215.215 0 00-.11-.11.204.204 0 00-.08-.016.21.21 0 00-.082.015.21.21 0 00-.066.045.216.216 0 000 .298.21.21 0 00.148.061v-.001zm.09-.316a.112.112 0 00-.074-.021h-.113v.25h.052v-.093h.025l.075.093h.062l-.081-.094a.1.1 0 00.058-.025.067.067 0 00.02-.051.072.072 0 00-.025-.059zm-.135.125v-.099h.06c.012-.002.023.003.033.012a.052.052 0 01.012.037.058.058 0 01-.012.038.049.049 0 01-.032.012h-.061zm-3.093-1.253c0-.477.308-.87.812-.87.482 0 .807.376.807.87s-.325.869-.807.869c-.503 0-.812-.392-.812-.87zm-12.442-.897c.375 0 .616.238.678.658h-1.39c.063-.392.298-.658.712-.658zm-1.321.896c0-.846.548-1.425 1.333-1.425.749 0 1.265.579 1.27 1.425 0 .078-.005.15-.01.223l-.001.004h-1.987c.084.488.425.664.8.664.269 0 .554-.102.779-.284l.285.438c-.325.278-.694.38-1.097.38-.802 0-1.372-.562-1.372-1.425zm8.36 0c0-.477.308-.87.811-.87.482 0 .807.376.807.87s-.325.869-.806.869c-.504 0-.813-.392-.813-.87zm2.166-1.357v2.715h-.581v-.33c-.186.245-.465.398-.846.398-.75 0-1.339-.596-1.339-1.425 0-.828.59-1.425 1.34-1.425.38 0 .66.154.845.398v-.33h.581zm-5.453 1.357c0 .823.565 1.425 1.428 1.425.403 0 .671-.091.962-.324l-.28-.477a1.16 1.16 0 01-.701.245c-.465-.006-.806-.347-.806-.87 0-.522.341-.862.806-.868.253 0 .482.085.701.244l.28-.477c-.291-.232-.56-.323-.962-.323-.863 0-1.428.601-1.428 1.425zm6.797-1.028c.151-.238.37-.397.706-.397.117 0 .285.023.414.074l-.18.556a.933.933 0 00-.363-.068c-.38 0-.57.25-.57.699v1.52h-.584v-2.713h.577v.33zM31.818 26.1c-.28-.187-.666-.284-1.091-.284-.678 0-1.115.33-1.115.869 0 .442.325.715.923.8l.275.04c.32.046.47.13.47.284 0 .21-.212.33-.61.33-.403 0-.694-.131-.89-.284l-.274.46c.32.238.723.352 1.16.352.772 0 1.22-.37 1.22-.886 0-.477-.352-.726-.935-.811l-.274-.04c-.252-.034-.454-.085-.454-.267 0-.199.19-.318.51-.318.341 0 .672.13.834.233l.252-.477-.001-.001zm6.805.114a.787.787 0 01.705-.397c.117 0 .285.022.414.073l-.18.556a.933.933 0 00-.363-.068c-.38 0-.57.25-.57.699v1.52h-.583v-2.713h.577v.33zm-4.262-.33h-.951v-.823h-.589v.823h-.543v.54h.543v1.238c0 .63.241 1.004.93 1.004.252 0 .543-.08.728-.21l-.168-.505a1.067 1.067 0 01-.516.154c-.29 0-.386-.182-.386-.455v-1.226h.952v-.54zm-8.701 1.012v1.703l-.59-.002v-1.51c0-.46-.19-.715-.587-.715-.387 0-.655.25-.655.72v1.505h-.588v-1.51c0-.46-.196-.715-.582-.715-.398 0-.656.25-.656.721v1.505h-.587v-2.714h.582v.336c.22-.318.498-.403.784-.403.41 0 .7.182.885.483.247-.381.599-.489.94-.483.65.006 1.054.437 1.054 1.079z" fill="#231F20"/><path fill-rule="evenodd" clip-rule="evenodd" d="M52.167 19.174v1h-.083v-.755l-.128.652h-.087l-.128-.65v.753h-.084v-1h.119l.136.686.137-.686h.118zm-.75.171v.829h-.085v-.829h-.151v-.168h.387v.168h-.151z" fill="#F79410"/><path fill-rule="evenodd" clip-rule="evenodd" d="M40.446 21.273h-8.82V5.202h8.82v16.07z" fill="#FF5F00"/><path fill-rule="evenodd" clip-rule="evenodd" d="M32.185 13.237c0-3.26 1.506-6.164 3.85-8.035a9.95 9.95 0 00-6.23-2.185c-5.566 0-10.079 4.576-10.079 10.22 0 5.645 4.513 10.221 10.08 10.221a9.95 9.95 0 006.23-2.185 10.255 10.255 0 01-3.85-8.036" fill="#EB001B"/><path fill-rule="evenodd" clip-rule="evenodd" d="M52.345 13.237c0 5.645-4.512 10.221-10.08 10.221a9.952 9.952 0 01-6.23-2.185 10.254 10.254 0 003.851-8.036c0-3.26-1.506-6.164-3.85-8.035a9.953 9.953 0 016.23-2.185c5.567 0 10.08 4.576 10.08 10.22" fill="#F79E1B"/></svg>