<svg width="73" height="32" fill="none" xmlns="http://www.w3.org/2000/svg"><path fill="#F7E224" d="M6 7h60.697v17.908H6z"/><path fill-rule="evenodd" clip-rule="evenodd" d="M16.355 12.776c.41.376.65.957.718 1.64a5.07 5.07 0 01-.137 1.572 4.013 4.013 0 01-.58 1.47 3.092 3.092 0 01-1.197 1.196c-.41.24-.854.376-1.333.41h-.205c-.478 0-.854-.102-1.196-.273a2.64 2.64 0 01-.854-.786l-.786 3.417H9.486l1.709-7.45c.015-.125.038-.25.062-.38.027-.151.056-.308.075-.475.017-.14.026-.281.034-.427.009-.137.017-.278.034-.427h1.196l-.103 1.025c.342-.341.718-.649 1.094-.82a.327.327 0 01.156-.074.455.455 0 00.083-.028c.308-.137.65-.171.957-.171.65 0 1.162.17 1.572.58zm-1.23 4.238c.205-.376.376-.787.513-1.265a3.49 3.49 0 00.136-1.264 1.768 1.768 0 00-.444-1.06 1.391 1.391 0 00-1.025-.41c-.171 0-.342.034-.479.068-.17.034-.341.137-.512.24a2.354 2.354 0 00-.786.922c-.205.376-.376.855-.513 1.367-.137.547-.17.957-.137 1.299 0 .376.171.684.41.923.24.205.547.342.957.342.205 0 .41-.035.581-.069.171-.068.342-.136.479-.205a2.08 2.08 0 00.82-.888zm32.706-4.375c.376.376.616.923.65 1.64.102 1.333-.137 2.461-.786 3.316-.615.922-1.47 1.4-2.495 1.4-.034 0-.077-.008-.12-.016a.617.617 0 00-.12-.017 2.622 2.622 0 01-.956-.274 1.9 1.9 0 01-.82-.82l-.786 3.52h-2.051l1.572-7.143c.205-.922.342-1.606.376-2.05h1.846l-.035.82c.274-.24.547-.479.855-.65a.482.482 0 01.087-.03.204.204 0 00.084-.038c.341-.17.751-.239 1.162-.239.649 0 1.162.205 1.538.581zm-1.845 4.17a6.55 6.55 0 00.41-1.23c.068-.445.103-.821.068-1.129 0-.376-.136-.649-.307-.82-.171-.205-.444-.307-.752-.307-.137 0-.273 0-.41.034-.41.136-.752.444-1.025.923-.41.683-.547 1.4-.479 2.22.069.411.171.753.376.958.205.205.479.342.82.342.103 0 .205 0 .308-.035.137-.034.273-.102.41-.205.24-.17.41-.41.581-.752zm8.612-4.204c.445.273.718.683.752 1.264v.581c-.014.07-.033.15-.054.235-.03.124-.062.259-.082.38l-.513 2.256a5.05 5.05 0 00-.137.82c-.034.274-.034.547-.034.855h-1.88v-.479c0-.085.009-.162.017-.239.009-.077.017-.154.017-.24-.239.343-.512.616-.82.753l-.034.034c-.342.17-.683.273-1.094.273-.615 0-1.059-.17-1.435-.478-.376-.308-.58-.718-.615-1.265-.103-.82.24-1.47.923-1.914.546-.341 1.298-.58 2.255-.649.274-.034.615-.034.923-.034h.547c.068-.273.102-.444.102-.581a.946.946 0 00.035-.308c-.035-.205-.103-.341-.24-.444-.136-.102-.342-.137-.58-.137-.274 0-.513.069-.65.205a.267.267 0 00-.137.137c-.102.103-.17.274-.205.479h-1.948c.034-.616.342-1.094.82-1.436.376-.239.786-.376 1.3-.444.238-.034.512-.034.785-.034.889 0 1.504.102 1.982.41zm-2.734 5.16a3.27 3.27 0 00.581-.478c.308-.41.513-.923.65-1.504-.035-.034-.103-.034-.137-.034h-.205c-.308 0-.615.034-.855.103-.273.068-.478.17-.683.307-.41.274-.581.615-.547 1.026 0 .205.068.375.205.512.103.137.308.171.513.171.17 0 .341-.034.478-.103z" fill="#0054A4"/><path d="M61.331 12.229l-2.632 4.614-.546-4.614h-2.017l1.162 6.733-1.606 2.46h2.153l1.196-2.187 4.204-7.006H61.33z" fill="#0054A4"/><path fill-rule="evenodd" clip-rule="evenodd" d="M22.951 12.639c.513.41.752.957.82 1.64.035.547 0 1.128-.17 1.71-.137.614-.342 1.161-.65 1.606-.341.512-.752.888-1.23 1.093-.342.171-.786.274-1.265.308-.081 0-.17.008-.264.016-.102.009-.21.018-.317.018-.786 0-1.4-.205-1.88-.615-.512-.41-.785-.957-.82-1.675-.034-.58 0-1.162.206-1.811.17-.615.41-1.162.752-1.64.307-.41.717-.718 1.196-.923.307-.137.683-.24 1.093-.274.205-.034.445-.034.65-.034.786 0 1.4.205 1.88.581zm-1.196 4.511c.24-.41.41-.888.547-1.4.102-.548.17-.958.137-1.436-.035-.513-.205-.889-.445-1.094-.239-.24-.58-.376-1.06-.376a1.91 1.91 0 00-.405.054l-.073.014c-.17.035-.375.103-.546.205-.308.24-.581.513-.786.923-.205.376-.376.82-.513 1.367s-.17.991-.137 1.401c.034.445.205.787.445 1.026.273.239.615.376 1.059.376.17 0 .342 0 .478-.034.206-.035.41-.103.547-.205a2.21 2.21 0 00.752-.82z" fill="#0054A4"/><path d="M28.898 12.434c-.376-.205-.923-.342-1.709-.342-.82 0-1.504.205-1.982.581-.479.41-.684.855-.65 1.436.035.341.172.649.479.922.273.274.752.581 1.435.889.547.24.889.444 1.06.58.17.138.273.308.273.514.035.307-.102.58-.41.82-.307.205-.683.307-1.196.307-.41 0-.65-.034-.854-.205a.633.633 0 01-.308-.58c-.034-.069-.034-.137 0-.24 0-.102.034-.205.068-.308h-1.332c-.035.137-.035.308-.069.41a.699.699 0 000 .377c.034.478.274.854.684 1.127.444.24 1.025.41 1.743.41.922 0 1.709-.205 2.255-.649.581-.41.82-.957.786-1.572-.034-.376-.17-.684-.41-.923-.205-.239-.752-.58-1.538-.922-.58-.274-.922-.479-1.093-.616a.77.77 0 01-.274-.478c-.034-.308.069-.547.308-.718.205-.17.547-.273.957-.273.376 0 .65.068.82.205a.633.633 0 01.308.58v.377h1.196c.034-.171.034-.308.034-.376v-.24c.034-.546-.17-.854-.581-1.093zm4.306 6.562c-.24.034-.478.034-.65.068-.204 0-.41.034-.58.034-.479 0-.855-.068-1.094-.239-.24-.137-.376-.41-.41-.786-.034-.137 0-.342.034-.615.034-.308.103-.581.137-.923l.752-3.35h-1.23l.204-.854h1.265l.342-1.537 1.299-.308-.41 1.845h1.435l-.205.855h-1.436l-.683 3.486c-.069.273-.137.478-.137.58-.034.138-.034.24-.034.308 0 .205.068.308.205.41.137.103.342.137.65.137.102 0 .239-.034.41-.034.136 0 .273-.034.41-.068l-.274.99z" fill="#0054A4"/><path fill-rule="evenodd" clip-rule="evenodd" d="M37.715 12.092c.889 0 1.538.171 1.983.479.444.307.717.82.752 1.538.034.239.034.512 0 .888 0 .246-.056.492-.117.762l-.02.093h-4.819a1.287 1.287 0 00-.117.442c-.006.045-.012.091-.02.139-.034.17-.034.341-.034.478.034.41.205.752.444.957.274.205.615.342 1.094.342.205 0 .41-.034.581-.103l.41-.205c.308-.205.513-.478.65-.854h1.435c-.171.65-.513 1.162-1.094 1.538-.376.273-.854.444-1.401.512-.12 0-.24.009-.359.017a4.82 4.82 0 01-.359.018c-.786 0-1.4-.206-1.88-.581-.444-.376-.717-.923-.751-1.607-.035-.512 0-1.128.17-1.777.137-.65.377-1.196.65-1.675.308-.444.684-.82 1.162-1.025.41-.24.854-.342 1.367-.376h.273zm1.455 2.46c.008-.074.015-.143.015-.204.034-.137.034-.24.034-.342 0-.342-.17-.615-.41-.82a1.944 1.944 0 00-1.06-.308.667.667 0 00-.12.017.673.673 0 01-.119.017c-.41.035-.752.171-1.025.479-.342.307-.581.82-.718 1.47h3.384c0-.113.01-.216.02-.308z" fill="#0054A4"/></svg>