<svg width="120" height="66" viewBox="0 0 120 66" fill="none" xmlns="http://www.w3.org/2000/svg">
<g clip-path="url(#clip0)">
<path d="M45.797 31.2392C46.4527 32.3063 46.87 33.492 47.2873 34.6777C47.5854 35.6262 47.8834 36.5747 48.0622 37.5826C48.1815 38.1754 48.2411 38.7682 48.3603 39.4204C48.4199 40.0725 48.5391 40.7246 48.4795 41.3767L48.5391 41.436C48.5391 42.266 48.5987 43.0959 48.4795 43.9259C48.4199 44.1631 48.3603 44.1631 48.1815 44.1631C47.2277 44.0445 46.2739 43.9852 45.3797 43.9259C45.3797 43.9852 45.3797 44.1038 45.3797 44.1631C46.3335 44.2816 47.2873 44.3409 48.2411 44.4595C48.4199 44.4595 48.5391 44.5188 48.4795 44.7559C48.3603 45.6451 48.3007 46.4751 48.1218 47.3644C48.1218 47.4237 48.1219 47.4237 48.0622 47.4829C47.943 48.0758 47.8834 48.7279 47.5854 49.3207C47.4661 50.0914 47.1681 50.8028 46.87 51.5142C46.3335 52.937 45.6182 54.2413 44.724 55.4862C44.3664 55.9605 44.0683 56.4941 43.5914 56.909V56.9683C43.7106 56.9683 43.8299 56.9683 44.0087 56.9683C44.0683 56.9683 44.0683 56.9683 44.1279 56.9683H44.1875C44.3068 56.9683 44.4856 56.9683 44.6048 56.9683C44.6644 56.9683 44.724 56.9683 44.7836 56.9683C64.0976 56.9683 83.3519 56.9683 102.666 56.9683C106.6 56.9683 109.998 54.5377 111.19 50.8028C112.8 45.7044 109.402 40.1318 104.096 39.2425C103.56 39.1239 103.023 39.1239 102.487 39.1239C84.7229 39.1239 67.0185 39.1239 49.2545 39.1239C48.9564 39.1239 48.8372 39.0647 48.7776 38.709C48.0622 33.7884 46.0355 29.52 42.6973 25.7851L42.6376 25.7258C42.6376 25.963 42.6376 26.2594 42.6376 26.4965C43.5914 27.6229 44.4856 28.8679 45.2009 30.1128C45.4394 30.5278 45.7374 30.8242 45.797 31.2392ZM97.7181 42.0881C99.7449 42.0881 101.772 42.0881 103.798 42.0881C104.096 42.0881 104.156 42.1474 104.156 42.4438C104.156 42.7995 104.156 43.2145 104.156 43.5702C104.156 43.8074 104.096 43.8666 103.858 43.8666C102.547 43.8666 101.295 43.8666 99.9833 43.8666C99.7449 43.8666 99.6257 43.9259 99.6257 44.2223C99.6257 44.9337 99.6257 45.7044 99.6257 46.4158C99.6257 46.653 99.6853 46.7122 99.9237 46.7122C100.997 46.7122 102.07 46.7122 103.143 46.7122C103.381 46.7122 103.441 46.7715 103.441 47.0087C103.441 47.4237 103.441 47.8386 103.441 48.2536C103.441 48.4908 103.381 48.4908 103.143 48.4908C102.07 48.4908 100.997 48.4908 99.9237 48.4908C99.6853 48.4908 99.566 48.55 99.566 48.8465C99.566 49.6764 99.566 50.5657 99.566 51.3957C99.566 51.6921 99.6853 51.7514 99.9237 51.7514C101.176 51.7514 102.487 51.7514 103.739 51.7514C103.977 51.7514 104.096 51.8106 104.037 52.0478C104.037 52.4628 104.037 52.8778 104.037 53.2927C104.037 53.4706 104.037 53.5299 103.798 53.5299C101.712 53.5299 99.566 53.5299 97.4797 53.5299C97.2412 53.5299 97.2412 53.352 97.2412 53.2335C97.2412 51.4549 97.2412 49.6764 97.2412 47.8386C97.2412 46.0601 97.2412 44.2816 97.2412 42.4438C97.3604 42.1474 97.42 42.0881 97.7181 42.0881ZM88.4784 42.0881C89.7302 42.0881 91.0417 42.0881 92.2935 42.0881C93.9626 42.1474 95.2145 43.0959 95.4529 44.6373C95.6913 46.0601 95.3933 47.2458 93.9626 48.0165C95.2145 48.4908 95.5721 49.4986 95.6317 50.6843C95.6317 51.2178 95.5721 51.6921 95.6913 52.2256C95.7509 52.5813 95.8106 52.937 96.049 53.2335C96.1682 53.352 96.1682 53.4706 95.9298 53.4706C95.2741 53.4706 94.6183 53.4706 93.903 53.4706C93.6646 53.4706 93.605 53.2927 93.5453 53.1149C93.3665 52.6406 93.3665 52.1663 93.3665 51.6921C93.3665 51.1585 93.4261 50.625 93.3069 50.0914C93.1281 49.3207 92.7108 48.9057 91.8762 48.9057C91.5186 48.9057 91.1609 48.9057 90.8032 48.9057C90.5052 48.9057 90.386 48.965 90.386 49.3207C90.386 50.5657 90.386 51.8699 90.386 53.1149C90.386 53.352 90.3264 53.4706 90.0879 53.4113C89.5514 53.4113 88.9553 53.4113 88.4188 53.4113C88.1804 53.4113 88.1804 53.352 88.1804 53.1149C88.1804 49.4986 88.1804 45.8823 88.1804 42.266C88.24 42.1474 88.2996 42.0881 88.4784 42.0881ZM79.1791 42.0881C79.7156 42.0881 80.2521 42.0881 80.7886 42.0881C81.0271 42.0881 81.0867 42.1474 81.0867 42.3845C81.0867 44.8152 81.0867 47.2458 81.0867 49.6764C81.0867 50.0321 81.0867 50.4471 81.2059 50.8028C81.4443 51.5735 81.9808 51.9292 82.9346 51.8699C83.7096 51.8106 84.1864 51.3957 84.3653 50.625C84.4249 50.3286 84.4249 49.9729 84.4249 49.6764C84.4249 47.2458 84.4249 44.8152 84.4249 42.3845C84.4249 42.1474 84.4845 42.0288 84.7825 42.0288C85.319 42.0288 85.9152 42.0288 86.4517 42.0288C86.6305 42.0288 86.6901 42.0881 86.6901 42.266C86.6901 44.8152 86.7497 47.4237 86.6901 49.9729C86.6305 52.522 84.7229 53.6484 82.5769 53.5892C81.6232 53.5299 80.729 53.2927 80.0137 52.6406C79.358 52.0478 79.0003 51.2178 78.9407 50.3286C78.8811 49.0243 78.9407 47.6608 78.9407 46.3565C78.9407 45.0523 78.9407 43.6888 78.9407 42.3845C78.8215 42.1474 78.8811 42.0881 79.1791 42.0881ZM70.1779 45.3487C70.3567 43.1552 72.0854 41.7324 74.291 41.9696C74.5891 42.0288 74.8871 42.0288 75.1852 42.0881C76.6159 42.4438 77.4504 43.5109 77.5696 45.1116C77.6292 45.823 77.6292 45.823 76.9139 45.823C76.4966 45.823 76.0794 45.823 75.6621 45.823C75.4832 45.823 75.4236 45.7637 75.4236 45.5859C75.4236 45.3487 75.4236 45.1709 75.364 44.9337C75.3044 44.2223 74.9468 43.8073 74.291 43.7481C73.4565 43.6295 72.92 43.8666 72.5623 44.5188C72.3835 44.9337 72.3239 45.408 72.2643 45.823C72.2643 46.4751 72.2643 47.1272 72.2643 48.0165C72.3239 48.6686 72.2047 49.4986 72.3239 50.3286C72.5027 51.3364 73.0392 51.8699 73.993 51.8699C74.7679 51.8699 75.1852 51.5142 75.3044 50.6843C75.3044 50.4471 75.364 50.2693 75.3044 50.0321C75.3044 49.8543 75.364 49.795 75.5429 49.795C76.139 49.795 76.6755 49.795 77.2716 49.795C77.4504 49.795 77.5696 49.8543 77.51 50.0321C77.4504 50.5064 77.4504 50.9214 77.3312 51.3957C77.0331 52.4628 76.3178 53.2335 75.1852 53.4706C74.3506 53.6484 73.5757 53.7077 72.7411 53.4706C71.1913 53.1149 70.1779 51.8699 70.0587 50.21C70.0587 48.6093 70.0587 46.9494 70.1779 45.3487ZM62.8457 42.0881C64.8725 42.0881 66.8397 42.0881 68.8664 42.0881C69.1049 42.0881 69.2241 42.1474 69.2241 42.3845C69.2241 42.7402 69.2241 43.1552 69.2241 43.5109C69.2241 43.7481 69.1645 43.8074 68.9261 43.8074C67.6742 43.8074 66.3628 43.8074 65.111 43.8074C64.8725 43.8074 64.7533 43.8666 64.7533 44.1038C64.7533 44.8745 64.7533 45.5859 64.7533 46.3565C64.7533 46.5937 64.8129 46.653 65.0513 46.653C66.1243 46.653 67.1973 46.653 68.2703 46.653C68.5088 46.653 68.628 46.7122 68.628 46.9494C68.628 47.3644 68.628 47.7201 68.628 48.1351C68.628 48.3722 68.5684 48.4315 68.3299 48.4315C67.2569 48.4315 66.1839 48.4315 65.111 48.4315C64.8725 48.4315 64.7533 48.4908 64.7533 48.7279C64.7533 49.6172 64.7533 50.5064 64.7533 51.3957C64.7533 51.6328 64.8129 51.6921 65.0513 51.6921C66.3628 51.6921 67.6146 51.6921 68.9261 51.6921C69.2241 51.6921 69.2837 51.8106 69.2837 52.0478C69.2837 52.4035 69.2837 52.7592 69.2837 53.1149C69.2837 53.4113 69.2241 53.4706 68.9261 53.4706C67.1973 53.4706 65.4686 53.4706 63.7399 53.4706C63.4418 53.4706 63.1438 53.4706 62.8457 53.4706C62.6073 53.4706 62.5477 53.4113 62.5477 53.1742C62.5477 51.3957 62.5477 49.5579 62.5477 47.7794C62.5477 46.0008 62.5477 44.2223 62.5477 42.4438C62.4881 42.1474 62.5477 42.0881 62.8457 42.0881ZM53.4272 50.1507C53.4272 49.9729 53.4868 49.9136 53.6657 49.9136C54.2618 49.9136 54.7983 49.9136 55.3944 49.9136C55.5732 49.9136 55.6328 49.9729 55.6328 50.1507C55.6328 50.4471 55.6924 50.8028 55.8117 51.04C56.2885 51.9885 57.7192 52.0478 58.3749 51.5735C58.673 51.3364 58.7922 51.04 58.7922 50.6843C58.9114 49.7357 58.3749 49.2022 57.6 48.8465C57.0635 48.6093 56.527 48.4315 55.9905 48.1943C55.6924 48.0758 55.3944 47.8979 55.1559 47.7201C54.0233 47.068 53.6061 46.0601 53.7253 44.8152C53.8445 43.5702 54.5002 42.7402 55.6328 42.266C57.1231 41.6731 58.6134 41.7324 59.8652 42.7402C60.4613 43.2145 60.8786 43.8666 60.9382 44.6966C60.9978 45.408 60.9978 45.408 60.3421 45.408H59.9248C59.6268 45.408 59.3883 45.408 59.0903 45.408C58.8518 45.408 58.7922 45.3487 58.7922 45.1116C58.7922 44.5188 58.4345 43.9259 57.8384 43.7481C56.7654 43.5109 55.9309 43.8666 55.9309 45.1709C55.9309 45.5859 56.1693 45.8823 56.527 46.1194C57.0039 46.4158 57.4808 46.653 58.0173 46.8901C58.7326 47.1865 59.4479 47.4829 60.044 48.0165C60.6997 48.6093 61.0574 49.3207 61.0574 50.21C61.0574 50.625 61.0574 51.04 60.9382 51.4549C60.5805 52.5813 59.746 53.2335 58.6134 53.4706C57.2423 53.767 55.9309 53.5892 54.7387 52.7592C54.0829 52.2849 53.6657 51.5735 53.4868 50.7435C53.4868 50.625 53.4272 50.3878 53.4272 50.1507Z" fill="#FEFEFD"/>
<path d="M119.953 43.333C119.834 45.5858 119.238 47.72 118.224 49.7357C115.482 55.0712 111.131 58.3318 105.169 59.4582C104.156 59.6361 103.143 59.6953 102.129 59.6953C81.9212 59.6953 61.6535 59.6953 41.4454 59.6953C41.3262 59.6953 41.207 59.7546 41.0878 59.6361C41.3262 59.3989 41.5646 59.1025 41.8627 58.8654C42.3992 58.2725 42.9357 57.739 43.4126 57.0869C43.5318 56.9683 43.651 56.8497 43.8299 56.909C43.9491 56.909 44.0087 56.909 44.1279 56.909C63.5015 56.909 82.875 56.909 102.249 56.909C106.183 56.909 109.581 54.4784 110.773 50.7435C112.382 45.6451 108.985 40.0724 103.679 39.1832C103.143 39.0646 102.606 39.0646 102.07 39.0646C84.3057 39.0646 66.6012 39.0646 48.8372 39.0646C48.5391 39.0646 48.4199 39.0053 48.3603 38.6496C47.645 33.7291 45.6182 29.4607 42.28 25.7258L42.2204 25.6665C42.2204 25.1922 42.2204 24.7772 42.2204 24.303C42.3396 24.303 42.5184 24.303 42.6376 24.303C62.4881 24.303 82.3981 24.303 102.249 24.303C109.879 24.303 116.674 29.1642 119.118 36.3969C119.595 37.7604 119.893 39.1832 119.953 40.606C119.953 40.6653 119.953 41.1395 119.953 41.1988C119.953 41.9695 119.953 42.6216 119.953 43.333ZM71.072 32.4248C71.1913 32.4841 71.2509 32.6027 71.2509 32.7213C71.6681 33.5512 72.0854 34.3219 72.5623 35.1519C72.92 35.7447 73.2776 35.804 73.7545 35.2705C74.1122 34.8555 74.4102 34.4405 74.7679 34.0255C75.1852 33.492 75.6025 33.0177 76.0197 32.4248C76.0794 32.6027 76.0197 32.7213 76.0197 32.8398C75.8409 34.0848 75.7217 35.389 75.5429 36.634C75.5429 36.8118 75.5429 36.8711 75.7217 36.8711C75.9601 36.8711 76.2582 36.8711 76.4966 36.8711C77.2716 36.8711 77.7485 36.4561 77.8677 35.6854C78.1061 33.7884 78.3446 31.832 78.583 29.9349C78.6426 29.6978 78.7618 29.3421 78.583 29.2235C78.4042 29.105 78.1061 29.1642 77.8081 29.1642C77.6888 29.1642 77.6292 29.1642 77.51 29.1642C76.9735 29.1642 76.5562 29.3421 76.1986 29.7571C75.364 30.7649 74.4699 31.7134 73.5757 32.7213C73.3969 32.9584 73.3372 32.8991 73.1584 32.662C72.5623 31.7134 71.9662 30.7649 71.3701 29.7571C71.1316 29.3421 70.774 29.1642 70.2971 29.1642C69.999 29.1642 69.6414 29.1642 69.3433 29.1642C69.1049 29.1642 69.0453 29.2235 69.0453 29.4607C68.926 30.7056 68.7472 31.8913 68.5684 33.1363C68.4492 34.2626 68.2703 35.4483 68.1511 36.5747C68.0915 36.8118 68.1511 36.9304 68.4492 36.9304C68.6876 36.9304 68.926 36.9304 69.1645 36.9304C69.9394 36.9304 70.4163 36.5154 70.5355 35.7447C70.774 34.5591 70.8932 33.4919 71.072 32.4248ZM62.0112 36.9897C62.5477 36.9897 63.0842 36.9304 63.6207 36.8711C65.2302 36.5747 66.2436 35.5669 66.5416 34.0255C66.6608 33.4327 66.7204 32.8398 66.7801 32.247C66.9589 30.5278 66.2436 29.5792 64.5745 29.1642C63.3822 28.8678 62.19 28.9271 60.9978 29.2235C59.5671 29.5792 58.7326 30.4685 58.4345 31.8913C58.2557 32.6027 58.1961 33.3734 58.1365 34.0848C58.0769 35.2705 58.6134 36.1004 59.6864 36.634C60.3421 36.9304 61.1766 36.9897 62.0112 36.9897ZM104.216 36.9897C104.752 36.9897 105.348 36.9897 105.885 36.8711C107.375 36.5747 108.448 35.6854 108.746 34.1441C108.865 33.4327 108.985 32.7213 109.044 32.0099C109.163 30.5278 108.508 29.5792 107.017 29.1642C105.766 28.8085 104.454 28.8085 103.202 29.1642C101.772 29.5199 100.877 30.4685 100.579 31.9506C100.46 32.6027 100.341 33.2548 100.341 33.9069C100.222 35.389 100.877 36.2783 102.308 36.7526C102.964 36.9304 103.56 36.9897 104.216 36.9897ZM83.8884 36.9897C84.3056 36.9897 84.7229 36.9897 85.1402 36.9304C86.9285 36.6933 88.1207 35.7447 88.4188 34.1441C88.538 33.4327 88.6572 32.7213 88.7169 32.0099C88.8361 30.5871 88.1804 29.6385 86.7497 29.2235C85.4979 28.8678 84.246 28.8678 82.9942 29.1642C81.5039 29.5199 80.5502 30.4092 80.2521 31.9506C80.1329 32.6027 80.0137 33.3141 80.0137 33.9662C79.9541 35.389 80.5502 36.2783 81.8616 36.7526C82.5173 36.9304 83.173 36.9897 83.8884 36.9897ZM93.2473 29.105C92.5916 29.105 91.9358 29.105 91.2801 29.105C91.1013 29.105 91.0417 29.1642 91.0417 29.3421C91.1013 30.1128 91.3993 30.4685 92.1147 30.4685C92.7108 30.4685 93.2473 30.4685 93.8434 30.4685C94.1414 30.4685 94.4991 30.4685 94.7972 30.5278C95.9894 30.6463 96.4067 31.1799 96.2874 32.3656C96.2278 32.7805 96.1682 33.1955 96.1086 33.6105C95.9894 34.6183 95.5125 35.0926 94.4991 35.3297C93.9626 35.4483 93.4261 35.389 92.8896 35.389C92.532 35.389 92.532 35.2705 92.532 34.974C92.6512 34.1441 92.7704 33.2548 92.83 32.4248C92.8896 31.6542 92.5319 31.2392 91.757 31.2392C91.5186 31.2392 91.2801 31.2392 91.0417 31.2392C90.8032 31.1799 90.7436 31.3577 90.684 31.5356C90.5052 32.9584 90.3263 34.3812 90.1475 35.804C90.0879 36.219 90.2667 36.5154 90.684 36.634C90.8629 36.6933 91.1013 36.7526 91.2801 36.7526C92.5916 36.7526 93.9626 36.8118 95.2741 36.6933C96.8239 36.5747 97.9565 35.6262 98.2546 34.1441C98.3142 33.8477 98.3142 33.5512 98.3738 33.2548C98.4334 32.8398 98.493 32.4248 98.493 32.0099C98.6123 30.6463 97.8969 29.6385 96.4067 29.2828C95.3933 29.0457 94.3203 29.105 93.2473 29.105ZM57.4808 29.105C55.9309 29.1642 54.4406 28.9864 52.9503 29.2235C51.1024 29.4607 50.089 30.4685 49.791 32.3063C49.7313 32.7805 49.6717 33.3141 49.6121 33.7884C49.4333 35.1519 50.0294 36.1004 51.2812 36.5747C51.5793 36.6933 51.8773 36.7526 52.1754 36.8118C53.1888 36.9304 54.1425 36.8711 55.1559 36.8711C55.9905 36.8711 56.3481 36.5747 56.5866 35.804C56.6462 35.5669 56.6462 35.4483 56.3481 35.4483C55.3944 35.4483 54.5002 35.4483 53.5464 35.4483C53.2484 35.4483 53.0099 35.4483 52.7119 35.389C51.9369 35.2705 51.6985 34.9148 51.6985 34.1441C51.6985 33.4327 51.8177 32.7213 51.9369 32.0691C52.1754 31.0613 52.7715 30.5871 53.7849 30.5278C54.4406 30.4685 55.1559 30.5278 55.8117 30.5278C56.825 30.5278 57.3019 30.0535 57.4808 29.105Z" fill="#79C301"/>
<path d="M23.6218 -0.0622559C24.2775 -0.0622559 24.9928 -0.0622559 25.6485 -0.0622559C32.0865 0.471297 36.9746 3.49477 40.2532 8.94887C41.8627 11.6759 42.6376 14.6401 42.6376 17.7821C42.6376 19.9756 42.6376 22.1691 42.6376 24.3626C42.6376 24.8369 42.6376 25.2519 42.6376 25.7262C42.6376 25.9633 42.6376 26.2597 42.6376 26.4968C42.3396 26.2597 42.1011 25.9633 41.8627 25.6669C41.9223 25.074 41.9223 24.4812 41.8627 23.8884C41.8627 22.9991 41.9223 22.0506 41.8627 21.1613C41.8627 20.5092 41.8627 19.8571 41.8627 19.2049C41.9223 17.96 41.8031 16.7743 41.6839 15.5886C41.505 14.3437 41.207 13.158 40.7897 11.9723C40.4917 11.2016 40.1936 10.3717 39.7763 9.66027C39.061 8.23746 38.1668 6.93322 37.0938 5.74755C34.0537 2.48694 30.3578 0.530582 25.8274 0.17488C23.5622 -0.00297127 21.4162 0.293447 19.2702 1.00485C16.1108 2.07196 13.4879 3.96904 11.4015 6.57752C10.567 7.58534 9.79204 8.71173 9.25555 9.95669C8.59983 11.1424 8.18255 12.4466 7.82488 13.7508C7.348 15.6479 7.22878 17.545 7.28839 19.4421C7.28839 19.6199 7.28839 19.7978 7.28839 19.9163C7.28839 21.6356 7.28839 23.4141 7.28839 25.1333C7.04994 25.3705 6.8115 25.6076 6.57306 25.8447C6.45383 25.7854 6.51345 25.6669 6.51345 25.6076C6.51345 22.9398 6.51345 20.2128 6.51345 17.545C6.57306 9.48242 12.3553 2.24981 20.224 0.35273C21.4162 0.174879 22.5488 -0.00297217 23.6218 -0.0622559Z" fill="#676767"/>
<path d="M41.8627 25.6666C42.1011 25.963 42.3396 26.2595 42.6376 26.4966C43.5914 27.623 44.4856 28.8679 45.2009 30.1129C45.3797 30.4686 45.6182 30.765 45.7374 31.18C44.7836 31.6543 43.8299 32.1285 42.8761 32.6028C42.8165 32.5435 42.7569 32.4842 42.7569 32.425C42.1011 31.2393 41.3262 30.1722 40.4917 29.1644C39.4783 27.9787 38.3457 26.9116 37.0938 25.963C37.2131 25.963 37.2727 25.8445 37.3323 25.7852C37.9284 25.0145 38.5245 24.3031 39.1206 23.5324C39.1802 23.4731 39.2398 23.3545 39.2398 23.236C39.1206 22.3467 39.0014 21.4575 38.8822 20.5682C38.7033 19.6197 38.4649 18.6711 38.2861 17.7226C38.2264 17.4262 38.0476 17.4262 37.8092 17.4855C37.5111 17.4855 37.6303 17.7226 37.6899 17.8412C37.6899 17.9004 37.6899 17.9597 37.6899 18.019C37.6303 19.3825 37.8092 20.8054 37.7496 22.1689C37.7496 22.2282 37.8092 22.2874 37.6899 22.3467C37.5111 22.2282 37.2727 22.1689 37.1534 21.991C37.1534 21.4575 37.1534 20.8646 37.1534 20.3311C37.1534 19.2047 37.2131 18.019 37.1534 16.8926C37.1534 16.8333 37.1534 16.7741 37.1534 16.7148C37.0342 15.1141 36.6766 13.632 36.0208 12.1499C35.1863 10.2529 33.9941 8.65219 32.3846 7.34795C31.9077 6.87368 31.3116 6.51798 30.7751 6.22156C29.106 5.27302 27.3176 4.68018 25.4101 4.56162C23.0257 4.38377 20.7605 4.91732 18.6741 6.10299C17.6011 6.69583 16.5877 7.40723 15.7531 8.35577C14.5609 9.48216 13.7264 10.8457 13.0706 12.3278C12.2957 14.1063 11.8784 16.0034 11.938 17.9597C11.938 19.264 11.938 20.5682 11.938 21.9317C12.4149 21.6946 12.8918 21.4575 13.3687 21.2203C13.4283 21.2203 13.4879 21.1611 13.5475 21.1611C13.5475 21.2203 13.5475 21.3389 13.6071 21.3982C14.084 22.3467 14.5609 23.2953 15.0378 24.2438C14.9782 24.3624 14.859 24.3031 14.7994 24.3624C14.0244 24.8366 13.1899 25.3109 12.4149 25.8445C12.2361 25.4888 11.9977 25.1923 11.7592 24.8959C11.3419 24.1252 10.9247 23.4731 10.4478 22.8803C10.5074 22.7617 10.6862 22.6431 10.8054 22.6431C11.4015 22.406 11.5208 21.991 11.5208 21.3982C11.4612 20.5682 11.4612 19.7975 11.5208 18.9676C11.5804 18.3154 11.4612 17.6633 11.64 17.0112C11.64 16.8926 11.6996 16.7741 11.5208 16.7148C11.4015 16.7148 11.2823 16.6555 11.2227 16.7741C11.1631 16.8333 11.1631 16.9519 11.1631 17.0112C10.865 18.3154 10.567 19.6197 10.3285 20.9832C10.2093 21.6946 10.1497 22.406 10.0305 23.1174C9.73244 23.3546 9.49399 23.5917 9.13633 23.7103C9.13633 21.8725 9.13633 20.0347 9.13633 18.2562C9.13633 16.9519 9.25555 15.707 9.494 14.462C10.0901 11.6164 11.2227 9.0079 13.0706 6.69583C13.3687 6.34013 13.7264 5.98443 13.9648 5.56944C14.0244 5.56944 14.0244 5.56944 14.0244 5.51016C14.084 5.51016 14.084 5.51016 14.084 5.45087C14.1436 5.45087 14.1436 5.45087 14.1436 5.39159C14.2033 5.39159 14.2033 5.39159 14.2033 5.33231C14.2629 5.33231 14.2629 5.33231 14.2629 5.27302C14.3225 5.27302 14.3225 5.27302 14.3225 5.21374C14.3821 5.21374 14.3821 5.21374 14.3821 5.15445C14.4417 5.15445 14.5013 5.15445 14.5013 5.09517L14.5609 5.03589C14.6801 4.9766 14.7994 4.85804 14.859 4.79875C16.0512 3.73165 17.3626 2.84239 18.8529 2.19027C20.8201 1.3603 22.8468 0.945312 24.9928 1.0046C26.5427 1.06388 28.033 1.3603 29.5233 1.89385C30.6559 2.30884 31.7289 2.90167 32.7422 3.61308C33.3383 4.02806 33.8748 4.50233 34.471 4.91732L34.5306 4.9766L34.5902 5.03589C34.6498 5.09517 34.6498 5.09517 34.769 5.09517C34.769 5.15445 34.769 5.15445 34.8286 5.15445C34.8286 5.21374 34.8286 5.21374 34.8882 5.21374C34.8882 5.27302 34.8882 5.27302 34.9478 5.27302C34.9478 5.33231 34.9478 5.33231 35.0075 5.33231C35.0075 5.39159 35.0075 5.39159 35.0671 5.39159C35.1863 5.74729 35.544 5.98443 35.7824 6.22156C38.5841 9.54145 39.9552 13.3356 40.0148 17.6633C40.0744 19.679 40.0148 21.6946 40.0148 23.7695C40.0148 23.9474 40.0744 24.1252 40.1936 24.2438C40.9089 24.7181 41.3858 25.2516 41.8627 25.6666ZM33.5768 6.93296C34.4113 7.70365 35.2459 8.47434 35.9612 9.3636C36.7958 10.4307 37.5111 11.6164 38.0476 12.8613C38.4649 13.8099 38.7629 14.8177 39.1802 15.7662C39.2398 15.8848 39.2994 15.9441 39.4187 15.9441C39.5379 15.9441 39.5379 15.8255 39.5975 15.707C39.6571 15.4698 39.6571 15.2327 39.6571 14.9955C39.5379 13.9284 39.2398 12.8613 38.8822 11.7942C38.4649 10.5493 37.8688 9.42288 37.1534 8.29649C36.7958 7.76294 36.4977 7.22938 35.9612 6.75511C35.7824 6.4587 35.5439 6.28084 35.3055 6.04371C34.5306 5.15445 33.5768 4.44305 32.623 3.79093C31.3712 3.02024 30.0597 2.36812 28.6887 1.95314C27.4369 1.59743 26.1254 1.41958 24.814 1.30101C23.9198 1.24173 23.0853 1.3603 22.1911 1.47886C20.3432 1.77528 18.6145 2.36812 17.005 3.37594C15.6339 4.2652 14.3821 5.27302 13.4283 6.63655C13.3687 6.69583 13.3687 6.69583 13.3091 6.75511C12.5938 7.70365 11.938 8.71148 11.4612 9.77858C10.6862 11.6164 9.91127 13.5135 9.97088 15.5291C9.97088 15.6477 9.97088 15.707 10.0901 15.7662C10.1497 15.7662 10.2689 15.7662 10.2689 15.6477C10.3285 15.292 10.6266 15.1141 10.6862 14.8177C10.9247 14.1656 11.1631 13.5727 11.4015 12.9799C12.1765 11.2014 13.1899 9.60073 14.5609 8.17792C14.9782 7.70365 15.4551 7.28867 15.932 6.87368C15.9916 6.87368 16.0512 6.8144 16.1108 6.75511C17.1242 5.92514 18.2568 5.33231 19.449 4.79875C21.0585 4.14663 22.7276 3.79093 24.4563 3.79093C25.1717 3.79093 25.887 3.85021 26.6023 3.9095C27.7945 4.08735 28.9271 4.38377 30.0598 4.85803C31.3712 5.45087 32.5038 6.10299 33.5768 6.93296Z" fill="#E5E5E5"/>
<path d="M12.4745 25.7258C13.2495 25.1922 14.0244 24.718 14.859 24.2437C14.9186 24.1844 15.0378 24.2437 15.0974 24.1251C16.1704 23.5916 17.303 23.1766 18.4356 22.7616C19.5682 22.4652 20.7604 22.1688 21.9527 22.0502C22.0719 22.0502 22.2507 22.0502 22.3699 22.0502C23.3237 21.9909 24.2775 21.7538 25.2313 21.8723C25.5293 21.9316 25.7678 21.9316 26.0658 21.9909C27.0792 22.1095 28.1522 22.1688 29.1656 22.3466C29.2252 22.4059 29.3444 22.4059 29.404 22.4652C30.2386 22.5837 31.0135 22.8802 31.8481 23.1173C32.0865 23.1766 32.2653 23.3544 32.5634 23.3544C33.2787 23.7101 33.9941 24.0658 34.7094 24.3623C35.6035 24.8365 36.4381 25.4294 37.213 25.9629C38.4649 26.9115 39.5975 27.9786 40.6109 29.1642C41.4454 30.1721 42.2204 31.2392 42.8761 32.4248C42.9357 32.4841 42.9953 32.5434 42.9953 32.6027C43.0549 32.662 43.0549 32.7805 43.1145 32.8398C43.7702 34.0255 44.2471 35.3297 44.6644 36.634C44.9625 37.6418 45.1413 38.7089 45.3201 39.7167C45.3797 40.3096 45.4393 40.9024 45.499 41.4952C45.499 42.3252 45.499 43.0959 45.499 43.9259C45.499 43.9852 45.499 44.1037 45.499 44.163C45.3797 44.993 45.3201 45.823 45.1413 46.6529C45.0817 46.8308 45.0221 47.0086 44.9625 47.1865C44.5452 47.1865 44.0683 47.2458 43.651 47.1272C43.7106 46.9493 43.7106 46.8308 43.7702 46.6529C44.0683 45.3487 44.2471 43.9852 44.2471 42.6216C44.2471 41.436 44.1279 40.191 43.9491 39.0053C43.2337 35.2112 41.5646 31.8913 38.8821 29.0457C37.0938 27.2079 35.0671 25.7258 32.6826 24.718C30.3578 23.7101 27.9734 23.1766 25.4697 23.058C24.3371 22.9987 23.2045 23.1173 22.0719 23.2359C19.9259 23.5323 17.8991 24.1844 15.9916 25.1329C13.8456 26.2001 11.9976 27.6821 10.3881 29.4607C8.65943 31.3577 7.4076 33.4919 6.51344 35.8633C5.91733 37.464 5.55966 39.1239 5.44044 40.8431C5.38083 41.9695 5.32122 43.0366 5.50005 44.163C5.55967 44.578 5.55967 45.0523 5.61928 45.4673C5.7385 46.1787 5.91733 46.8308 6.03655 47.5422C5.61928 47.5422 5.14239 47.4829 4.72511 47.6015C4.54628 47.0679 4.42706 46.4751 4.30784 45.8822C4.18862 44.9337 4.06939 43.9259 4.00978 42.9773C4.00978 42.9181 4.00978 42.7995 4.00978 42.7402C4.00978 41.7324 4.00978 40.7838 4.12901 39.776C4.24823 38.946 4.42706 38.1161 4.60589 37.2861C4.60589 37.1675 4.6655 37.049 4.6655 36.9304C4.90395 36.1597 5.202 35.389 5.50005 34.5591C5.85772 33.6698 6.33461 32.8398 6.75188 31.9506C7.28838 31.1206 7.88449 30.2313 8.4806 29.4607C8.77865 29.105 9.07671 28.8085 9.37476 28.4528C9.73243 28.0378 10.2093 27.6821 10.567 27.2079C10.7458 27.1486 10.865 27.03 10.9246 26.9707C11.2823 26.615 11.8784 26.1408 12.4745 25.7258Z" fill="#212322"/>
<path d="M10.0305 61.7703C9.31515 61.4146 8.71904 60.8811 8.12293 60.4661C7.4076 59.9325 6.87111 59.2804 6.21539 58.7468C6.21539 58.6876 6.21539 58.6283 6.275 58.569C6.69227 58.2133 7.10955 57.8576 7.46721 57.4426C7.9441 56.9683 8.4806 56.6126 8.89788 56.0791C9.0171 56.1384 9.07671 56.3162 9.19593 56.3755C9.43437 56.6126 9.61321 56.9683 9.97087 57.0276C10.4478 57.0869 10.9843 57.0276 11.4611 57.0276C11.5208 57.0276 11.64 57.0276 11.64 56.909L11.6996 56.9683C14.9782 59.8139 18.7933 61.4146 23.1449 61.7703C26.5427 62.0074 29.7617 61.4146 32.8018 60.0511C34.5306 59.2804 36.0804 58.2133 37.5111 56.9683C37.5707 57.0869 37.6899 57.0869 37.7495 57.0869C38.2264 57.0869 38.7033 57.0276 39.1802 57.1462C39.2398 57.1462 39.2994 57.0869 39.359 57.0869C39.6571 56.7905 40.0148 56.4941 40.2532 56.1384C40.5513 55.8419 40.7897 55.5455 41.0878 55.1898C41.2666 55.1898 41.3858 55.2491 41.505 55.3677C42.2204 55.9012 42.8761 56.4941 43.651 56.9683C43.5914 57.324 43.2934 57.5019 43.0549 57.739C41.8627 59.1618 40.432 60.3475 38.9418 61.4146C37.988 62.0667 37.0342 62.6003 36.0208 63.1338C35.9016 63.1931 35.7824 63.2524 35.6632 63.2524C35.2459 62.541 34.8286 61.8296 34.4709 61.0589C34.3517 60.8811 34.2921 60.8811 34.1133 60.9403C33.7556 61.1182 33.3383 61.296 32.9211 61.4739C32.3249 61.7703 31.7288 61.8889 31.1327 62.1853C30.5962 62.3632 30.0001 62.4817 29.4636 62.6596C28.0926 62.956 26.7811 63.1338 25.4101 63.1931C23.8602 63.2524 22.3699 63.1338 20.8797 62.8967C19.9259 62.6596 18.9125 62.4817 17.9587 62.126C17.3626 61.8889 16.7665 61.6517 16.23 61.4146C15.8723 61.296 15.5147 61.1182 15.157 60.9403C15.0974 60.8811 15.0378 60.8218 14.9782 60.8218C14.0244 60.3475 13.1302 59.7547 12.2361 59.1618C11.9976 58.984 11.8784 59.0433 11.7592 59.2211C11.2227 59.9325 10.6862 60.6439 10.1497 61.4146C10.0901 61.4739 10.0305 61.5925 10.0305 61.7703Z" fill="#E5E5E5"/>
<path d="M94.0222 48.0166C95.274 48.4909 95.6317 49.4987 95.6913 50.6843C95.6913 51.2179 95.6317 51.6922 95.7509 52.2257C95.8106 52.5814 95.8702 52.9371 96.1086 53.2335C96.2278 53.3521 96.2278 53.4707 95.9894 53.4707C95.3337 53.4707 94.6779 53.4707 93.9626 53.4707C93.7242 53.4707 93.6646 53.2928 93.6049 53.115C93.4261 52.6407 93.4261 52.1664 93.4261 51.6922C93.4261 51.1586 93.4857 50.6251 93.3665 50.0915C93.1877 49.3208 92.7704 48.9058 91.9358 48.9058C91.5782 48.9058 91.2205 48.9058 90.8628 48.9058C90.5648 48.9058 90.4456 48.9651 90.4456 49.3208C90.4456 50.5658 90.4456 51.87 90.4456 53.115C90.4456 53.3521 90.386 53.4707 90.1475 53.4114C89.611 53.4114 89.0149 53.4114 88.4784 53.4114C88.24 53.4114 88.24 53.3521 88.24 53.115C88.24 49.4987 88.24 45.8824 88.24 42.2661C88.24 42.0289 88.2996 42.0289 88.538 42.0289C89.7898 42.0289 91.1013 42.0289 92.3531 42.0289C94.0222 42.0882 95.274 43.0368 95.5125 44.5781C95.7509 46.0602 95.3933 47.2459 94.0222 48.0166ZM90.4456 45.5267C90.4456 46.0009 90.4456 46.4752 90.4456 46.9495C90.4456 46.9495 90.4456 46.9495 90.4456 47.0088C90.4456 47.1866 90.5052 47.2459 90.684 47.2459C91.1609 47.2459 91.6378 47.2459 92.0551 47.2459C92.7108 47.2459 93.1281 46.8309 93.2473 46.2381C93.3069 45.8231 93.3069 45.4674 93.2473 45.0524C93.0684 44.4003 92.6512 43.9853 91.9955 43.9853C91.5186 43.9853 91.1013 43.9853 90.6244 43.9853C90.4456 43.9853 90.386 44.0446 90.386 44.2224C90.4456 44.5781 90.4456 45.0524 90.4456 45.5267Z" fill="#676767"/>
<path d="M78.8214 46.3566C78.8214 45.0524 78.8214 43.6889 78.8214 42.3846C78.8214 42.1475 78.8811 42.0289 79.1195 42.0882C79.656 42.0882 80.1925 42.0882 80.729 42.0882C80.9674 42.0882 81.027 42.1475 81.027 42.3846C81.027 44.8153 81.027 47.2459 81.027 49.6765C81.027 50.0322 81.0271 50.4472 81.1463 50.8029C81.3847 51.5736 81.9212 51.9293 82.875 51.87C83.6499 51.8107 84.1268 51.3958 84.3056 50.6251C84.3653 50.3286 84.3653 49.9729 84.3653 49.6765C84.3653 47.2459 84.3653 44.8153 84.3653 42.3846C84.3653 42.1475 84.4249 42.0289 84.7229 42.0289C85.2594 42.0289 85.8555 42.0289 86.392 42.0289C86.5709 42.0289 86.6305 42.0882 86.6305 42.2661C86.6305 44.8153 86.6901 47.4237 86.6305 49.9729C86.5709 52.5221 84.6633 53.6485 82.5173 53.5893C81.5635 53.53 80.6694 53.2928 79.9541 52.6407C79.2983 52.0479 78.9407 51.2179 78.8811 50.3286C78.8215 49.0244 78.8811 47.7202 78.8214 46.3566C78.8811 46.3566 78.8811 46.3566 78.8214 46.3566Z" fill="#676767"/>
<path d="M59.9248 45.4081C59.6267 45.4081 59.3883 45.4081 59.0902 45.4081C58.8518 45.4081 58.7922 45.3488 58.7922 45.1116C58.7922 44.5188 58.4345 43.926 57.8384 43.7481C56.7654 43.511 55.9309 43.8667 55.9309 45.1709C55.9309 45.5859 56.1693 45.8823 56.527 46.1195C57.0039 46.4159 57.4808 46.653 58.0172 46.8902C58.7326 47.1866 59.4479 47.483 60.044 48.0165C60.6997 48.6094 61.0574 49.3208 61.0574 50.21C61.0574 50.625 61.0574 51.04 60.9382 51.455C60.5805 52.5814 59.746 53.2335 58.6134 53.4706C57.2423 53.7671 55.9309 53.5892 54.7386 52.7592C54.0829 52.285 53.6656 51.5736 53.4868 50.7436C53.4272 50.5065 53.3676 50.3286 53.4272 50.0915C53.4272 49.9136 53.4868 49.8543 53.6656 49.8543C54.2618 49.8543 54.7983 49.8543 55.3944 49.8543C55.5732 49.8543 55.6328 49.9136 55.6328 50.0915C55.6328 50.3879 55.6924 50.7436 55.8116 50.9807C56.2885 51.9293 57.7192 51.9886 58.3749 51.5143C58.673 51.2771 58.7922 50.9807 58.7922 50.625C58.9114 49.6765 58.3749 49.1429 57.6 48.7872C57.0635 48.5501 56.527 48.3722 55.9905 48.1351C55.6924 48.0165 55.3944 47.8387 55.1559 47.6608C54.0233 47.0087 53.606 46.0009 53.7253 44.7559C53.8445 43.511 54.5002 42.681 55.6328 42.2067C57.1231 41.6139 58.6134 41.6732 59.8652 42.681C60.4613 43.1553 60.8786 43.8074 60.9382 44.6374C60.9978 45.3488 60.9978 45.3488 60.3421 45.3488C60.2229 45.4081 60.1036 45.4081 59.9248 45.4081Z" fill="#676767"/>
<path d="M62.4881 47.7794C62.4881 46.0009 62.4881 44.2223 62.4881 42.4438C62.4881 42.1474 62.6073 42.0881 62.9053 42.0881C64.9321 42.0881 66.8993 42.0881 68.926 42.0881C69.1645 42.0881 69.2837 42.1474 69.2837 42.3846C69.2837 42.7403 69.2837 43.1552 69.2837 43.5109C69.2837 43.7481 69.2241 43.8074 68.9856 43.8074C67.7338 43.8074 66.4224 43.8074 65.1705 43.8074C64.9321 43.8074 64.8129 43.8666 64.8129 44.1038C64.8129 44.8745 64.8129 45.5859 64.8129 46.3566C64.8129 46.5937 64.8725 46.653 65.1109 46.653C66.1839 46.653 67.2569 46.653 68.3299 46.653C68.5684 46.653 68.6876 46.7123 68.6876 46.9494C68.6876 47.3644 68.6876 47.7201 68.6876 48.1351C68.6876 48.3722 68.628 48.4315 68.3895 48.4315C67.3165 48.4315 66.2435 48.4315 65.1705 48.4315C64.9321 48.4315 64.8129 48.4908 64.8129 48.7279C64.8129 49.6172 64.8129 50.5064 64.8129 51.3957C64.8129 51.6328 64.8725 51.6921 65.1109 51.6921C66.4224 51.6921 67.6742 51.6921 68.9856 51.6921C69.2837 51.6921 69.3433 51.8107 69.3433 52.0478C69.3433 52.4035 69.3433 52.7592 69.3433 53.1149C69.3433 53.4113 69.2837 53.4706 68.9856 53.4706C67.2569 53.4706 65.5282 53.4706 63.7995 53.4706C63.5014 53.4706 63.2034 53.4706 62.9053 53.4706C62.6669 53.4706 62.6073 53.4113 62.6073 53.1742C62.4881 51.3957 62.4881 49.6172 62.4881 47.7794Z" fill="#676767"/>
<path d="M97.3604 47.8387C97.3604 46.0601 97.3604 44.2816 97.3604 42.4438C97.3604 42.1474 97.42 42.0881 97.7181 42.0881C99.7449 42.0881 101.772 42.0881 103.798 42.0881C104.096 42.0881 104.156 42.1474 104.156 42.4438C104.156 42.7995 104.156 43.2145 104.156 43.5702C104.156 43.8074 104.096 43.8666 103.858 43.8666C102.547 43.8666 101.295 43.8666 99.9833 43.8666C99.7449 43.8666 99.6256 43.9259 99.6256 44.2223C99.6256 44.9338 99.6256 45.7044 99.6256 46.4158C99.6256 46.653 99.6852 46.7123 99.9237 46.7123C100.997 46.7123 102.07 46.7123 103.143 46.7123C103.381 46.7123 103.441 46.7715 103.441 47.0087C103.441 47.4237 103.441 47.8387 103.441 48.2536C103.441 48.4908 103.381 48.4908 103.143 48.4908C102.07 48.4908 100.997 48.4908 99.9237 48.4908C99.6852 48.4908 99.566 48.5501 99.566 48.8465C99.566 49.6765 99.566 50.5657 99.566 51.3957C99.566 51.6921 99.6852 51.7514 99.9237 51.7514C101.176 51.7514 102.487 51.7514 103.739 51.7514C103.977 51.7514 104.096 51.8107 104.037 52.0478C104.037 52.4628 104.037 52.8778 104.037 53.2928C104.037 53.4706 104.037 53.5299 103.798 53.5299C101.712 53.5299 99.566 53.5299 97.4796 53.5299C97.2412 53.5299 97.2412 53.352 97.2412 53.2335C97.3604 51.3957 97.3604 49.6172 97.3604 47.8387Z" fill="#676767"/>
<path d="M72.3239 48.0165C72.3835 48.6686 72.2643 49.4986 72.3835 50.3285C72.5623 51.3364 73.0988 51.8699 74.0526 51.8699C74.8275 51.8699 75.2448 51.5142 75.364 50.6842C75.364 50.4471 75.4236 50.2693 75.364 50.0321C75.364 49.8543 75.4236 49.795 75.6025 49.795C76.1986 49.795 76.7351 49.795 77.3312 49.795C77.51 49.795 77.6292 49.8543 77.5696 50.0321C77.51 50.5064 77.51 50.9214 77.3908 51.3956C77.0927 52.4628 76.3774 53.2334 75.2448 53.4706C74.4102 53.6484 73.6353 53.7077 72.8008 53.4706C71.2509 53.1149 70.2375 51.8699 70.1183 50.21C69.999 48.55 69.999 46.8901 70.1183 45.2894C70.2971 43.0959 72.0258 41.6731 74.2314 41.9103C74.5295 41.9695 74.8275 41.9695 75.1256 42.0288C76.5562 42.3845 77.3908 43.4516 77.51 45.0523C77.5696 45.7637 77.5696 45.7637 76.8543 45.7637C76.437 45.7637 76.0197 45.7637 75.6025 45.7637C75.4236 45.7637 75.364 45.7044 75.364 45.5266C75.364 45.2894 75.364 45.1116 75.3044 44.8744C75.2448 44.163 74.8871 43.7481 74.2314 43.6888C73.3969 43.5702 72.8604 43.8073 72.5027 44.4595C72.3239 44.8744 72.2643 45.3487 72.2047 45.7637C72.3239 46.4751 72.3239 47.1272 72.3239 48.0165Z" fill="#676767"/>
<path d="M43.7106 56.8498C42.9357 56.3755 42.28 55.7827 41.5646 55.2491C41.4454 55.1305 41.3262 55.0713 41.1474 55.0713C41.4454 54.6563 41.8031 54.3006 42.0415 53.8263C42.2204 53.5299 42.4588 53.2335 42.578 52.8778C42.9357 52.3442 43.2934 51.7514 43.5318 51.0992C43.5914 50.9807 43.651 50.9214 43.7106 50.8028C44.1279 49.9728 44.3664 49.0836 44.724 48.1943C45.3797 48.4315 46.0355 48.6093 46.6912 48.8465C47.0488 48.965 47.4661 48.965 47.7046 49.2614C47.5853 50.0321 47.2873 50.7435 46.9892 51.4549C46.4527 52.8778 45.7374 54.182 44.8432 55.427C44.4856 55.9605 44.1875 56.4941 43.7106 56.8498Z" fill="#CFCFCF"/>
<path d="M45.2605 39.7761C45.0817 38.709 44.9029 37.7012 44.6048 36.6934C44.1875 35.3891 43.7106 34.1442 43.0549 32.8992C42.9953 32.8399 42.9953 32.7214 42.9357 32.6621C43.8895 32.1878 44.8433 31.7135 45.797 31.2393C46.4527 32.3064 46.87 33.492 47.2873 34.6777C47.5854 35.6263 47.8834 36.5748 48.0622 37.5826C48.1815 38.1755 48.2411 38.7683 48.3603 39.4204C48.1219 39.539 47.8834 39.4797 47.645 39.539C46.87 39.5983 46.0951 39.7168 45.2605 39.7761Z" fill="#CFCFCF"/>
<path d="M4.48667 37.464C4.30784 38.294 4.12901 39.1239 4.00979 39.9539C3.89056 40.9617 3.89056 41.9103 3.89056 42.9181C3.89056 42.9774 3.89056 43.0959 3.89056 43.1552C3.41368 43.1552 2.9964 43.1552 2.51951 43.1552C1.68496 43.2145 0.850408 43.3331 0.0158557 43.2738C-0.0437552 41.9696 0.0754661 40.606 0.194688 39.3018C0.31391 38.4125 0.492743 37.5233 0.731187 36.634C0.850409 36.634 0.969629 36.634 1.08885 36.6933C2.22146 36.9305 3.35407 37.1676 4.48667 37.464Z" fill="#9B9B9B"/>
<path d="M13.9648 5.56934C13.7264 5.98432 13.3687 6.34002 13.0707 6.69573C11.2227 9.00779 10.0305 11.557 9.494 14.4619C9.25556 15.7068 9.13633 16.9518 9.13633 18.256C9.13633 20.0938 9.13633 21.9316 9.13633 23.7101C8.77867 24.1251 8.30178 24.3623 7.94411 24.7772C7.76528 24.9551 7.58645 25.0737 7.40762 25.2515C7.40762 23.5323 7.40762 21.7538 7.40762 20.0346C7.40762 19.8567 7.40762 19.6789 7.40762 19.5603C7.64606 19.5603 7.82489 19.5603 8.06334 19.5603C8.24217 19.5603 8.36139 19.501 8.36139 19.2639C8.36139 18.4339 8.421 17.5446 8.48061 16.7147C8.59983 15.529 8.83828 14.4026 9.19594 13.2762C9.494 12.2091 10.0305 11.2013 10.4478 10.1342C10.5074 10.0749 10.5074 10.0749 10.567 10.0156C11.3419 8.53352 12.3553 7.22928 13.4283 6.0436C13.6071 5.86575 13.7264 5.62862 13.9648 5.56934Z" fill="#9B9B9B"/>
<path d="M10.0305 61.7703C10.0305 61.5924 10.1497 61.4738 10.2093 61.3553C10.7458 60.6439 11.2823 59.9325 11.8188 59.1618C11.938 58.9839 12.0573 58.9247 12.2957 59.1025C13.1899 59.6953 14.084 60.2882 15.0378 60.7624C15.0974 60.8217 15.157 60.8217 15.2166 60.881C14.859 61.4146 14.5609 62.0074 14.3225 62.6002C14.1436 62.9559 13.9052 63.3116 13.8456 63.7266C12.5341 63.1931 11.2823 62.541 10.0901 61.7703C10.0901 61.8296 10.0305 61.7703 10.0305 61.7703Z" fill="#CFCFCF"/>
<path d="M2.4003 53.4112C2.10225 52.6998 1.74458 52.107 1.50614 51.3956C1.38691 50.9806 1.14847 50.5656 1.08886 50.0914C2.34069 49.6764 3.59252 49.2614 4.84434 48.7871C5.08279 49.3799 5.26162 49.9135 5.50007 50.5063C5.61929 50.9213 5.85773 51.277 5.97695 51.6327C5.20201 51.9884 4.42707 52.4034 3.71174 52.8184C3.29446 53.0555 2.87719 53.2927 2.4003 53.4112Z" fill="#E5E5E5"/>
<path d="M20.9393 62.8374C22.4295 63.0745 23.9794 63.1931 25.4697 63.1338C25.5293 63.5488 25.5889 63.9045 25.5889 64.3195C25.5889 64.7938 25.7081 65.2087 25.5889 65.683C23.8602 65.8016 22.1911 65.683 20.4624 65.4459C20.522 65.2088 20.522 64.9716 20.5816 64.7345C20.7008 64.1416 20.82 63.4895 20.9393 62.8374Z" fill="#888888"/>
<path d="M4.84434 48.8465C3.59251 49.3208 2.34069 49.7358 1.08886 50.1508C0.731191 49.3208 0.61197 48.4908 0.433137 47.6016C0.373527 47.3051 0.313915 47.0087 0.313915 46.7123C0.790802 46.7123 1.26769 46.5345 1.74458 46.4752C2.57913 46.3566 3.35407 46.1195 4.18862 46.0602C4.30784 46.653 4.42707 47.1866 4.6059 47.7794C4.6059 48.1351 4.78473 48.4315 4.84434 48.8465Z" fill="#CFCFCF"/>
<path d="M4.18862 46.0601C3.35407 46.1787 2.57913 46.3566 1.74458 46.4751C1.26769 46.5344 0.790803 46.7122 0.313916 46.7122C0.194694 46.2973 0.194695 45.8823 0.135084 45.4673C0.0754729 44.6966 0.0158615 43.9852 0.0158615 43.2145C0.850414 43.2738 1.68497 43.1552 2.51952 43.0959C2.99641 43.0959 3.41368 43.0959 3.89057 43.0959C3.89057 44.1038 4.00979 45.0523 4.18862 46.0601Z" fill="#BABABA"/>
<path d="M8.36139 29.6386C7.76528 30.4685 7.16917 31.2985 6.63267 32.1285C6.57306 32.1285 6.51345 32.1285 6.45384 32.1285C5.38084 31.5356 4.36746 30.9428 3.29446 30.35C3.83096 29.4014 4.48668 28.5122 5.20201 27.6229C5.26162 27.5636 5.38084 27.5044 5.44045 27.4451C5.50006 27.5044 5.50006 27.5636 5.55968 27.5636C6.2154 28.0972 6.87112 28.5715 7.52684 29.105C7.76528 29.2829 8.00372 29.5793 8.36139 29.6386Z" fill="#E5E5E5"/>
<path d="M3.29445 30.35C4.36745 30.9428 5.38084 31.5356 6.45383 32.1285C6.51344 32.1285 6.57305 32.1285 6.63266 32.1285C6.21539 32.9585 5.7385 33.8477 5.38084 34.737C5.26161 34.6777 5.14239 34.6777 4.96356 34.6184C4.00979 34.2627 2.9964 33.8477 2.04263 33.492C1.9234 33.4327 1.80418 33.4327 1.74457 33.4327C2.16185 32.3656 2.69835 31.3578 3.29445 30.35Z" fill="#CFCFCF"/>
<path d="M1.74457 33.4327C1.86379 33.4327 1.98302 33.4327 2.04263 33.492C2.9964 33.8477 4.00979 34.2627 4.96356 34.6184C5.08278 34.6777 5.202 34.6777 5.38084 34.737C5.08278 35.5077 4.84434 36.2783 4.54628 37.1083C4.48667 37.2269 4.48667 37.3455 4.48667 37.464C3.35407 37.2269 2.22146 36.9305 1.02924 36.6933C0.910021 36.6933 0.790799 36.6933 0.671577 36.634C0.85041 35.6855 1.20808 34.737 1.56574 33.8477C1.62535 33.6699 1.68496 33.5513 1.74457 33.4327Z" fill="#BABABA"/>
<path d="M25.5889 65.7423C25.7081 65.268 25.5889 64.853 25.5889 64.3788C25.5889 63.9638 25.5889 63.5488 25.4697 63.1931C26.8407 63.1338 28.2118 62.8967 29.5232 62.6595C29.5232 62.7188 29.5232 62.7781 29.5828 62.8374C29.7617 63.6081 29.9405 64.3788 30.179 65.1495C28.6887 65.4459 27.1388 65.683 25.5889 65.7423Z" fill="#9B9B9B"/>
<path d="M7.9441 24.7774C8.30177 24.3624 8.77865 24.1253 9.13632 23.7103C9.43437 23.5324 9.73243 23.3546 10.0305 23.1174C10.1497 23.0581 10.3285 22.9989 10.4478 22.9396C10.9843 23.5324 11.4015 24.1845 11.8188 24.7774C12.0573 25.0738 12.3553 25.3702 12.4745 25.7259C11.8784 26.2002 11.2823 26.6152 10.7458 27.1487C10.6266 27.2673 10.5074 27.3266 10.3881 27.3859C10.3881 27.2673 10.3285 27.1487 10.2093 27.0894C9.43437 26.3187 8.77865 25.4295 7.9441 24.7774Z" fill="#F3F3F3"/>
<path d="M13.8456 63.7859C13.9052 63.3709 14.1436 63.0745 14.3225 62.6595C14.5609 62.0667 14.859 61.4739 15.2166 60.9403C15.5743 61.1182 15.932 61.2367 16.2896 61.4146C16.8857 61.6517 17.4818 61.8888 18.0183 62.126C17.9587 62.6003 17.7799 63.0152 17.6607 63.4895C17.5414 63.9638 17.303 64.438 17.303 64.9123C16.2896 64.7345 15.2762 64.3195 14.2628 63.9638C14.084 63.8452 13.9648 63.8452 13.8456 63.7859Z" fill="#BABABA"/>
<path d="M31.252 62.126C31.8481 61.8296 32.4442 61.711 33.0403 61.4146C33.3979 61.2367 33.8152 61.0589 34.2325 60.881C34.4113 60.8218 34.5305 60.8218 34.5902 60.9996C35.0074 61.711 35.3651 62.4224 35.7824 63.1931C34.6498 63.8452 33.4576 64.2602 32.1461 64.6159C31.9673 63.9638 31.7288 63.371 31.4904 62.7781C31.4308 62.541 31.4308 62.3038 31.252 62.126Z" fill="#CFCFCF"/>
<path d="M8.9575 56.079C8.54022 56.6126 8.00372 56.9683 7.52683 57.4425C7.10956 57.7982 6.69228 58.2132 6.33462 58.5689C6.27501 58.6282 6.27501 58.6875 6.27501 58.7468C5.6789 58.1539 5.1424 57.5611 4.66551 56.909C4.54629 56.7904 4.6059 56.6126 4.72512 56.494C5.6789 55.7826 6.69228 55.0712 7.64606 54.4191C7.76528 54.5376 7.82489 54.6562 7.94411 54.7748C8.18256 55.249 8.54022 55.6047 8.89789 55.9604C8.89789 55.9604 8.89789 56.0197 8.9575 56.079Z" fill="#F3F3F3"/>
<path d="M17.2434 64.8531C17.303 64.3788 17.4818 63.9046 17.6011 63.4303C17.7203 62.956 17.8991 62.541 17.9587 62.0668C18.9125 62.3632 19.8663 62.6003 20.8797 62.8375C20.7604 63.4896 20.7008 64.1417 20.5816 64.7938C20.522 65.031 20.522 65.2681 20.4624 65.5052C19.3894 65.3867 18.3164 65.2088 17.2434 64.8531Z" fill="#9B9B9B"/>
<path d="M45.0221 46.7122C45.2009 45.8822 45.2605 45.0523 45.3798 44.2223C46.3335 44.3409 47.2873 44.4001 48.2411 44.5187C48.4199 44.5187 48.5391 44.578 48.4795 44.8151C48.3603 45.7044 48.3007 46.5344 48.1219 47.4236C48.1219 47.4829 48.1219 47.4829 48.0622 47.5422C47.943 47.5422 47.8238 47.4829 47.7046 47.4829C46.87 47.1272 45.9163 47.0679 45.0221 46.7122Z" fill="#F3F3F3"/>
<path d="M45.3797 43.926C45.3797 43.096 45.3797 42.3253 45.3797 41.4953C45.499 41.4953 45.6182 41.4361 45.6778 41.4361C46.6316 41.4954 47.5257 41.3175 48.4795 41.3768L48.5391 41.4361C48.5391 42.266 48.5987 43.096 48.4795 43.926C48.4199 44.1631 48.3603 44.1631 48.1814 44.1631C47.2873 44.0445 46.3335 43.9853 45.3797 43.926Z" fill="#F3F3F3"/>
<path d="M2.4003 53.4113C2.87719 53.2928 3.29447 53.0556 3.71174 52.8185C4.48669 52.4628 5.20202 51.9885 5.97696 51.6328C6.09618 51.8699 6.27501 52.1071 6.39423 52.3442C6.45385 52.4628 6.51346 52.5814 6.57307 52.6999C6.39423 52.9963 6.03657 53.0556 5.79813 53.2335C5.0828 53.7077 4.30785 54.1227 3.53291 54.597C3.29447 54.7156 3.17525 54.7156 2.99641 54.4784C2.81758 54.182 2.63875 53.767 2.4003 53.4113Z" fill="#F3F3F3"/>
<path d="M48.5391 41.3767C47.5853 41.3767 46.6912 41.4953 45.7374 41.436C45.6182 41.436 45.499 41.4953 45.4394 41.4953C45.3797 40.9025 45.3201 40.3096 45.2605 39.7168C46.0951 39.6575 46.87 39.5389 47.7046 39.4796C47.943 39.4796 48.1815 39.4797 48.4199 39.3611C48.4795 40.0725 48.5391 40.7246 48.5391 41.3767Z" fill="#E5E5E5"/>
<path d="M45.0221 46.7123C45.9162 47.068 46.87 47.1273 47.8238 47.4237C47.943 47.4237 48.0622 47.483 48.1815 47.483C48.0622 48.0758 48.0026 48.7279 47.7046 49.3208C47.4065 49.0244 47.0488 49.0244 46.6912 48.9058C46.0355 48.6686 45.3797 48.4908 44.724 48.2537C44.7836 47.898 44.9625 47.6015 44.9625 47.2458C44.9029 47.068 44.9625 46.8901 45.0221 46.7123Z" fill="#E5E5E5"/>
<path d="M8.36138 29.6385C8.00371 29.5793 7.76527 29.2828 7.52683 29.0457C6.87111 28.5714 6.21539 28.0379 5.55967 27.5043C5.50006 27.445 5.50006 27.445 5.44044 27.3858C5.67889 26.9708 5.97694 26.6743 6.33461 26.3779C6.45383 26.3186 6.57305 26.3186 6.63266 26.4372C7.04994 26.7929 7.46722 27.2079 7.88449 27.5636C8.30177 27.9193 8.71905 28.275 9.07671 28.6307C9.13632 28.6307 9.13632 28.6307 9.19593 28.69C8.89788 28.9864 8.59982 29.3421 8.36138 29.6385Z" fill="#F3F3F3"/>
<path d="M31.252 62.126C31.4308 62.3038 31.4308 62.541 31.4904 62.7188C31.7289 63.3116 31.9673 63.9045 32.1461 64.5566C31.4904 64.7937 30.8347 64.9716 30.179 65.0902C30.0001 64.3195 29.8213 63.5488 29.5829 62.7781C29.5829 62.7188 29.5829 62.6595 29.5233 62.6002C30.1194 62.4817 30.6559 62.3038 31.252 62.126Z" fill="#BABABA"/>
<path d="M6.57304 52.7592C6.51343 52.6406 6.45382 52.522 6.39421 52.4035C6.75188 52.4035 7.10954 52.4035 7.52682 52.4035C7.64604 52.4035 7.76526 52.4628 7.88448 52.2849C8.42098 53.0556 8.95748 53.8263 9.49398 54.597C9.31514 54.597 9.13631 54.597 8.89787 54.597C8.5402 54.597 8.18254 54.5377 7.88448 54.6563C7.76526 54.5377 7.70565 54.4191 7.58643 54.3006C7.28837 53.8263 6.93071 53.2927 6.57304 52.7592Z" fill="#9B9B9B"/>
<path d="M71.072 32.4249C70.9528 33.492 70.774 34.6184 70.6548 35.6855C70.5355 36.4562 70.0586 36.8712 69.2837 36.8712C69.0453 36.8712 68.8068 36.8712 68.5684 36.8712C68.2703 36.8712 68.2107 36.8119 68.2703 36.5155C68.4492 35.3891 68.5684 34.2034 68.6876 33.077C68.8664 31.8321 68.9857 30.6464 69.1645 29.4014C69.1645 29.1643 69.2241 29.105 69.4625 29.105C69.7606 29.105 70.1183 29.105 70.4163 29.105C70.8932 29.105 71.2509 29.2829 71.4893 29.6979C72.0854 30.6464 72.6815 31.6542 73.2776 32.6028C73.3969 32.8399 73.5161 32.8399 73.6949 32.662C74.5295 31.6542 75.4236 30.7057 76.3178 29.6979C76.6755 29.2829 77.0927 29.105 77.6292 29.105C77.7485 29.105 77.8081 29.105 77.9273 29.105C78.1657 29.105 78.5234 29.0457 78.7022 29.1643C78.8811 29.3422 78.7022 29.6386 78.7022 29.8757C78.4638 31.7728 78.2253 33.7292 77.9869 35.6262C77.8677 36.3969 77.3908 36.8119 76.6159 36.8119C76.3774 36.8119 76.0794 36.8119 75.8409 36.8119C75.6621 36.8119 75.6025 36.7526 75.6621 36.5748C75.8409 35.3298 75.9601 34.0256 76.139 32.7806C76.139 32.662 76.1986 32.5435 76.139 32.3656C75.7217 32.8992 75.3044 33.4327 74.8871 33.9663C74.5295 34.3813 74.2314 34.7963 73.8737 35.2112C73.3969 35.7448 73.0392 35.6855 72.6815 35.0927C72.2643 34.2627 71.847 33.492 71.3701 32.662C71.1913 32.6028 71.1913 32.4842 71.072 32.4249Z" fill="#FEFEFD"/>
<path d="M62.0112 36.9898C61.1766 36.9898 60.4017 36.9305 59.6267 36.5748C58.5537 36.1005 58.0172 35.2705 58.0769 34.0256C58.1365 33.2549 58.1961 32.5435 58.3749 31.8321C58.673 30.4093 59.5671 29.52 60.9382 29.1643C62.1304 28.8679 63.3226 28.8086 64.5148 29.105C66.1839 29.52 66.8993 30.4686 66.7204 32.1878C66.6608 32.7806 66.6012 33.3735 66.482 33.9663C66.1839 35.5077 65.1706 36.5155 63.5611 36.8119C63.0842 36.9305 62.4881 36.9898 62.0112 36.9898ZM62.0708 35.6262C63.2034 35.6262 63.9187 35.2113 64.1572 34.2627C64.3956 33.4327 64.5148 32.6028 64.5148 31.7135C64.5148 30.8243 64.0379 30.35 63.1438 30.35C62.9649 30.35 62.7861 30.35 62.6073 30.35C61.4151 30.35 60.7593 30.8835 60.5209 32.0692C60.4017 32.6028 60.3421 33.1363 60.2825 33.7292C60.1036 35.0334 60.5805 35.6262 61.892 35.6262C62.0112 35.6262 62.0708 35.6262 62.0708 35.6262Z" fill="#FEFEFD"/>
<path d="M104.216 36.9897C103.56 36.9897 102.904 36.9304 102.308 36.7526C100.877 36.2783 100.222 35.389 100.341 33.9069C100.401 33.2548 100.46 32.6027 100.579 31.9506C100.818 30.4685 101.712 29.5792 103.202 29.1642C104.454 28.8678 105.766 28.8085 107.017 29.1642C108.448 29.5792 109.104 30.5278 109.044 32.0099C108.985 32.7213 108.925 33.4327 108.746 34.1441C108.388 35.6854 107.375 36.5154 105.885 36.8711C105.348 36.9304 104.812 36.9897 104.216 36.9897ZM105.11 30.3499C103.798 30.3499 103.083 30.8242 102.845 32.0099C102.666 32.7213 102.606 33.4327 102.547 34.1441C102.487 35.0333 102.904 35.4483 103.739 35.6262C103.977 35.6854 104.275 35.6854 104.514 35.6854C105.587 35.6854 106.302 35.1519 106.481 34.0848C106.6 33.4919 106.719 32.8398 106.779 32.1877C106.898 30.8242 106.421 30.3499 105.11 30.3499Z" fill="#FEFEFD"/>
<path d="M83.8884 36.9898C83.1731 36.9898 82.5173 36.9305 81.8616 36.6934C80.5502 36.2191 79.9541 35.3298 80.0137 33.907C80.0733 33.1956 80.1329 32.5435 80.2521 31.8914C80.5502 30.35 81.504 29.4608 82.9942 29.1051C84.2461 28.8086 85.4979 28.8086 86.7497 29.1643C88.1208 29.5793 88.7765 30.5279 88.7169 31.9507C88.6573 32.6621 88.5976 33.3735 88.4188 34.0849C88.1208 35.6855 86.9285 36.6934 85.1402 36.8712C84.7229 36.9305 84.3057 36.9898 83.8884 36.9898ZM84.7229 30.35C83.5307 30.35 82.875 30.765 82.5769 31.7135C82.3385 32.5435 82.2193 33.3735 82.2193 34.2627C82.2193 35.0334 82.577 35.4484 83.2327 35.567C83.6499 35.6855 84.1268 35.6855 84.5441 35.6263C85.3787 35.5077 85.8555 35.0927 86.094 34.322C86.3324 33.4921 86.4517 32.6028 86.4517 31.6543C86.4517 30.9429 86.0344 30.5279 85.3787 30.4093C85.1402 30.35 84.9614 30.35 84.7229 30.35Z" fill="#FEFEFD"/>
<path d="M93.2473 29.1049C94.3203 29.1049 95.3933 29.0457 96.4663 29.3421C97.9566 29.6978 98.6719 30.7056 98.5527 32.0691C98.4931 32.4841 98.4335 32.8991 98.4335 33.3141C98.3738 33.6105 98.3738 33.9069 98.3142 34.2033C98.0162 35.6854 96.8836 36.634 95.3337 36.7525C94.0222 36.8711 92.6512 36.8118 91.3397 36.8118C91.1609 36.8118 90.9225 36.7525 90.7436 36.6933C90.3264 36.5747 90.1475 36.2783 90.2071 35.8633C90.386 34.4405 90.5648 33.0177 90.7436 31.5949C90.7436 31.3577 90.8629 31.2391 91.1013 31.2984C91.3397 31.2984 91.5782 31.2984 91.8166 31.2984C92.5916 31.2984 92.9492 31.7134 92.8896 32.4841C92.83 33.3141 92.7108 34.2033 92.5916 35.0333C92.532 35.3297 92.5916 35.4483 92.9492 35.4483C93.4857 35.389 94.0222 35.4483 94.5587 35.389C95.5721 35.2112 96.049 34.7369 96.1682 33.6698C96.2278 33.2548 96.2875 32.8398 96.3471 32.4248C96.5259 31.2392 96.049 30.7056 94.8568 30.587C94.5587 30.5277 94.2011 30.5277 93.903 30.5277C93.3069 30.5277 92.7704 30.5277 92.1743 30.5277C91.3994 30.4685 91.1013 30.172 91.1013 29.4014C91.1013 29.2235 91.1609 29.1642 91.3397 29.1642C91.9359 29.1049 92.5916 29.1049 93.2473 29.1049Z" fill="#FEFEFD"/>
<path d="M57.4807 29.1051C57.3615 30.0536 56.825 30.5279 55.9309 30.5279C55.2751 30.5279 54.5598 30.5279 53.9041 30.5279C52.8907 30.5872 52.2946 31.0614 52.0562 32.0693C51.8773 32.7214 51.8177 33.4328 51.8177 34.1442C51.8177 34.9149 52.1158 35.2113 52.8311 35.3891C53.1291 35.4484 53.3676 35.4484 53.6656 35.4484C54.6194 35.4484 55.5136 35.4484 56.4674 35.4484C56.7654 35.4484 56.7654 35.5077 56.7058 35.8041C56.4674 36.6341 56.1097 36.8712 55.2751 36.8712C54.2618 36.8712 53.308 36.9305 52.2946 36.8119C51.9965 36.7527 51.6985 36.6934 51.4004 36.5748C50.1486 36.1005 49.5525 35.152 49.7313 33.7885C49.7909 33.3142 49.8505 32.7807 49.9102 32.3064C50.2082 30.5279 51.2216 29.5201 53.0695 29.2236C54.4406 28.9865 55.9309 29.1643 57.4807 29.1051Z" fill="#FEFEFD"/>
<path d="M13.9648 5.56942C13.7264 5.62871 13.5475 5.86584 13.4283 6.04369C12.2957 7.22936 11.2823 8.53361 10.567 10.0157C10.567 10.075 10.5074 10.075 10.4478 10.1343C10.2093 10.1343 9.97087 10.1343 9.73242 10.1343C9.6132 10.1343 9.43437 10.1935 9.37476 10.0157C9.91126 8.77074 10.6862 7.70363 11.5208 6.63653C13.6071 4.02805 16.23 2.13097 19.3894 1.06386C21.5354 0.352458 23.6814 0.056039 25.9466 0.23389C30.477 0.589592 34.1729 2.54595 37.2131 5.80656C38.286 6.99223 39.1802 8.29647 39.8955 9.71928C39.5379 9.89713 39.1206 9.77857 38.7629 9.77857C37.988 8.47432 37.1534 7.22936 36.0804 6.16226C35.842 5.92512 35.6632 5.56942 35.3055 5.45085L35.2459 5.39157L35.1863 5.33229L35.1267 5.273L35.0671 5.21372L35.0074 5.15444C34.9478 5.09515 34.8882 5.09515 34.8286 5.09515L34.769 5.03587L34.7094 4.97658C34.1133 4.5616 33.5768 4.08733 32.9807 3.67234C32.0269 2.96094 30.8943 2.3681 29.7617 1.95312C28.331 1.41956 26.7811 1.12315 25.2313 1.06386C23.0853 1.00458 21.0585 1.36028 19.0913 2.24954C17.6011 2.90166 16.2896 3.73163 15.0974 4.85802C14.9782 4.97658 14.859 5.03587 14.7994 5.09515L14.7397 5.15444C14.6801 5.15444 14.6205 5.15444 14.6205 5.21372L14.5609 5.273L14.5013 5.33229L14.4417 5.39157L14.3821 5.45085L14.3225 5.51014L14.2629 5.56942C14.0244 5.51014 14.0244 5.56942 13.9648 5.56942Z" fill="#CFCFCF"/>
<path d="M35.1863 5.45081C35.544 5.56937 35.7228 5.92508 35.9612 6.16221C37.0342 7.22932 37.8688 8.47428 38.6437 9.77852C38.8822 10.2528 39.1206 10.7271 39.3591 11.2606C40.3724 13.5134 40.9089 15.944 40.9685 18.3747C40.9685 19.0268 40.9685 19.6789 40.9685 20.3903C40.9685 21.2796 40.9685 21.2796 41.8627 21.2203C41.9223 22.1095 41.8627 23.0581 41.8627 23.9473C41.8627 24.5402 41.9223 25.133 41.8627 25.7258C41.3262 25.2516 40.9089 24.718 40.3724 24.303C40.1936 24.1845 40.1936 24.0066 40.1936 23.8288C40.1936 21.8131 40.2532 19.7382 40.1936 17.7225C40.0744 13.3948 38.7033 9.60066 35.9016 6.28078C35.6632 5.98436 35.3651 5.80651 35.1863 5.45081Z" fill="#9B9B9B"/>
<path d="M41.9223 21.1609C41.0282 21.2202 41.0282 21.2202 41.0282 20.331C41.0282 19.6789 41.0282 19.0267 41.0282 18.3153C40.9685 15.8254 40.432 13.4541 39.4187 11.2013C39.1802 10.727 38.9418 10.2527 38.7033 9.71919C39.061 9.65991 39.4783 9.77848 39.8359 9.65991C40.2532 10.3713 40.5513 11.2013 40.8493 11.972C41.2666 13.1576 41.5646 14.3433 41.7435 15.5883C41.9223 16.774 41.9819 18.0189 41.9223 19.2046C41.9223 19.8567 41.9223 20.5088 41.9223 21.1609Z" fill="#BABABA"/>
<path d="M9.37476 9.95642C9.43437 10.1343 9.61321 10.075 9.73243 10.075C9.97087 10.075 10.2093 10.075 10.4478 10.075C9.97087 11.0828 9.49399 12.0906 9.19593 13.217C8.83827 14.3434 8.59982 15.4698 8.4806 16.6555C8.36138 17.5447 8.30177 18.3747 8.36138 19.264C8.36138 19.5011 8.30177 19.5604 8.06332 19.5604C7.82488 19.5604 7.64605 19.5604 7.40761 19.5604C7.34799 17.604 7.46721 15.7069 7.9441 13.8691C8.24216 12.4463 8.71904 11.1421 9.37476 9.95642Z" fill="#BABABA"/>
<path d="M13.4283 6.69578C14.3821 5.39154 15.6339 4.32444 17.005 3.43518C18.6145 2.42736 20.3432 1.83452 22.1911 1.5381C23.0853 1.41953 23.9198 1.30097 24.814 1.36025C26.1254 1.41953 27.4369 1.59738 28.6887 2.01237C30.1194 2.42736 31.4308 3.02019 32.623 3.85017C33.6364 4.50229 34.5306 5.21369 35.3055 6.10295C35.544 6.34008 35.7824 6.57722 35.9612 6.81435C35.842 6.9922 35.6632 7.05149 35.4843 6.9922C34.8286 6.9922 34.1729 6.9922 33.5172 6.93292C32.4442 6.16223 31.3116 5.45083 30.0598 4.91727C28.9271 4.443 27.7945 4.14658 26.6023 3.96873C25.887 3.85016 25.1717 3.85017 24.4563 3.85017C22.7276 3.85017 21.0585 4.20587 19.449 4.85799C18.2568 5.33226 17.1242 5.98438 16.1108 6.81435C16.0512 6.87364 15.9916 6.93292 15.932 6.93292C15.2166 6.93292 14.5013 6.93292 13.786 6.93292C13.6072 6.93292 13.4283 6.93292 13.4283 6.69578Z" fill="#FEFEFD"/>
<path d="M37.1534 25.9629C36.3189 25.3701 35.4843 24.8365 34.6498 24.3623C35.1863 23.4137 35.7228 22.4652 36.3189 21.5166C36.6765 21.6945 36.9746 21.8723 37.3323 22.0502C37.5111 22.228 37.6899 22.2873 37.8688 22.4059C37.988 22.3466 37.9284 22.2873 37.9284 22.228C37.988 20.8645 37.8092 19.4417 37.8688 18.0782C37.8688 18.0189 37.8688 17.9596 37.8688 17.9003C37.8688 17.7818 37.7495 17.5446 37.988 17.5446C38.1668 17.5446 38.4053 17.4854 38.4649 17.7818C38.6437 18.7303 38.8822 19.6788 39.061 20.6274C39.2398 21.5166 39.2994 22.4059 39.4186 23.2952C39.4186 23.4137 39.4186 23.473 39.2994 23.5916C38.7033 24.3623 38.1072 25.0737 37.5111 25.8444C37.3919 25.8444 37.2727 25.9036 37.1534 25.9629Z" fill="#CFCFCF"/>
<path d="M13.5475 21.0424C14.7993 20.4496 16.0512 19.9753 17.3626 19.5603C17.4222 19.5603 17.4818 19.5603 17.5414 19.5603C17.6011 20.0346 17.7799 20.5088 17.8991 20.9831C18.0183 21.576 18.3164 22.1095 18.3164 22.7616C17.1838 23.1766 16.0512 23.5916 14.9782 24.1252C14.4417 23.2359 14.0244 22.2281 13.5475 21.2795C13.6071 21.2202 13.6071 21.161 13.5475 21.0424Z" fill="#CFCFCF"/>
<path d="M14.7993 12.4463C14.4417 13.217 14.084 13.9877 13.8456 14.7584C13.5475 15.7662 13.4283 16.774 13.4283 17.7819C12.9514 17.7819 12.4745 17.7226 12.0572 17.8411C11.9976 15.8848 12.3553 13.9877 13.1899 12.2092C13.8456 10.7271 14.6801 9.36357 15.8723 8.23718C16.0512 8.23718 16.23 8.23718 16.4088 8.23718C16.1704 8.47432 15.9916 8.71145 15.7531 8.94859C15.6339 9.06715 15.4551 9.12644 15.3955 9.36357C15.3955 9.36357 15.3955 9.36357 15.3955 9.42286C15.3955 9.42286 15.3955 9.42286 15.4551 9.36357C15.6339 9.36357 15.6339 9.18572 15.7531 9.12644C15.9916 9.24501 16.23 9.18572 16.4685 9.18572C16.4088 9.30429 16.3492 9.42286 16.23 9.54142C15.5743 10.2528 15.0974 11.0828 14.6801 11.9128C14.5013 12.3278 14.5013 12.4463 14.7993 12.4463ZM15.2166 9.65999C15.2166 9.65999 15.157 9.65999 15.2166 9.65999C15.157 9.65999 15.2166 9.65999 15.2166 9.65999Z" fill="#888888"/>
<path d="M13.4283 6.6958C13.4283 6.93294 13.6071 6.87365 13.786 6.87365C14.5013 6.87365 15.2166 6.87365 15.9319 6.87365C15.4551 7.28864 15.0378 7.76291 14.5609 8.17789C13.1899 9.6007 12.1765 11.2014 11.4015 12.9799C11.1631 13.5727 10.9246 14.2248 10.6862 14.8177C10.567 15.1141 10.2689 15.3512 10.2689 15.6476C10.2689 15.7069 10.1497 15.7662 10.0901 15.7662C9.97086 15.7069 9.97086 15.6476 9.97086 15.5291C9.97086 13.4541 10.6862 11.6163 11.4611 9.77855C11.938 8.71145 12.5937 7.70362 13.3091 6.75508C13.3687 6.81437 13.3687 6.75508 13.4283 6.6958Z" fill="#F3F3F3"/>
<path d="M33.5768 6.9329C34.2325 7.05146 34.8882 6.99218 35.5439 6.99218C35.7228 6.99218 35.9016 6.9329 36.0208 6.81433C36.4977 7.22932 36.8554 7.82215 37.2131 8.35571C37.9284 9.42281 38.5245 10.6085 38.9418 11.8534C39.2994 12.9206 39.5975 13.9284 39.7167 15.0548C39.7167 15.2919 39.7167 15.529 39.6571 15.7662C39.6571 15.8847 39.5975 16.0033 39.4783 16.0033C39.359 16.0033 39.2994 15.8847 39.2398 15.8255C38.7629 14.8769 38.5245 13.8691 38.1072 12.9206C37.5111 11.6756 36.8554 10.5492 36.0208 9.42281C35.2459 8.41499 34.4113 7.6443 33.5768 6.9329Z" fill="#F3F3F3"/>
<path d="M35.1863 13.9284C34.9478 13.3949 34.6498 12.8613 34.4113 12.2685C34.5305 12.1499 34.8882 12.2685 34.769 11.9721C34.4709 11.3199 34.0537 10.6678 33.6364 10.1343C33.2191 9.60072 32.7422 9.12645 32.2653 8.65218C32.4442 8.53362 32.6826 8.5929 32.8614 8.5929C33.1595 8.83003 33.3979 9.12645 33.8152 9.24502C33.3979 8.5929 32.8018 8.11863 32.2653 7.58508C32.3845 7.52579 32.4442 7.52579 32.5038 7.40723C34.1133 8.71147 35.3055 10.3121 36.14 12.2092C36.7958 13.632 37.1534 15.1734 37.2726 16.774C37.2726 16.8333 37.2726 16.8926 37.2726 16.9519C36.8554 16.9519 36.4381 16.9519 36.0208 16.9519C35.9016 16.0626 35.842 15.1141 35.5439 14.2248C35.4843 13.9284 35.3651 13.8691 35.1863 13.9284ZM33.994 9.48216C33.994 9.54144 33.994 9.54144 33.994 9.48216C34.0537 9.48216 33.994 9.48216 33.994 9.48216C33.994 9.42287 33.994 9.42287 33.9344 9.36359C33.9344 9.3043 33.8748 9.24502 33.8748 9.3043C33.8152 9.36359 33.8748 9.36359 33.9344 9.42287C33.9344 9.48215 33.9344 9.48216 33.994 9.48216Z" fill="#888888"/>
<path d="M36.0208 16.8926C36.4381 16.8926 36.8554 16.8926 37.2727 16.8926C37.3323 18.019 37.2727 19.2046 37.2727 20.331C37.2727 20.8646 37.2727 21.4574 37.2727 21.991C36.915 21.8131 36.6169 21.6353 36.2593 21.4574C36.1401 21.3981 36.0208 21.2796 35.842 21.2203C35.842 19.916 35.842 18.5525 35.842 17.2483C36.0804 17.1297 36.0208 17.0111 36.0208 16.8926Z" fill="#676767"/>
<path d="M32.5038 7.40723C32.4442 7.5258 32.325 7.5258 32.2654 7.58508C32.2057 7.58508 32.1461 7.5258 32.0865 7.5258C29.7021 5.688 27.0196 4.79875 23.9794 4.9766C21.9527 5.09517 20.1047 5.74729 18.376 6.75511C17.6607 7.22938 17.005 7.76293 16.3492 8.35577C16.1704 8.35577 15.9916 8.35577 15.8127 8.35577C16.6473 7.40723 17.6607 6.69583 18.7337 6.10299C20.8201 4.91732 23.0853 4.44305 25.4697 4.56161C27.3773 4.68018 29.1656 5.27302 30.8347 6.22156C31.4308 6.57726 32.0269 6.93296 32.5038 7.40723Z" fill="#9B9B9B"/>
<path d="M10.4478 22.8802C10.3285 22.9395 10.1497 22.9988 10.0305 23.0581C10.1497 22.3467 10.2093 21.6353 10.3285 20.9239C10.5074 19.5603 10.8054 18.2561 11.1631 16.9519C11.1631 16.8926 11.2227 16.774 11.2227 16.7147C11.2823 16.5962 11.4015 16.6554 11.5208 16.6554C11.6996 16.7147 11.64 16.8333 11.64 16.9519C11.5208 17.604 11.5804 18.2561 11.5208 18.9082C11.4611 19.7382 11.4611 20.5089 11.5208 21.3389C11.5804 21.9317 11.4015 22.3467 10.8054 22.5838C10.6266 22.7024 10.5074 22.7617 10.4478 22.8802Z" fill="#CFCFCF"/>
<path d="M11.9976 17.9004C12.4745 17.7818 12.9514 17.8411 13.3687 17.8411C13.3687 18.9675 13.3687 20.0346 13.3687 21.161C12.8918 21.3981 12.4745 21.6353 11.938 21.8724C11.9976 20.5089 11.9976 19.2046 11.9976 17.9004Z" fill="#676767"/>
<path d="M34.7094 5.03589C34.769 5.03589 34.8286 5.03589 34.8882 5.0955C34.769 5.0955 34.769 5.0955 34.7094 5.03589Z" fill="#9B9B9B"/>
<path d="M14.4417 5.0955C14.4417 5.03589 14.5013 5.03589 14.5609 5.03589C14.5609 5.0955 14.5013 5.0955 14.4417 5.0955Z" fill="#9B9B9B"/>
<path d="M34.5902 4.91724L34.6498 4.97685C34.6498 4.91724 34.5902 4.91724 34.5902 4.91724Z" fill="#9B9B9B"/>
<path d="M14.5609 5.03617L14.6205 4.97656C14.6205 4.97656 14.6205 4.97656 14.5609 5.03617Z" fill="#9B9B9B"/>
<path d="M14.3821 5.1547L14.4417 5.09509C14.4417 5.1547 14.4417 5.1547 14.3821 5.1547Z" fill="#9B9B9B"/>
<path d="M34.8286 5.09509L34.8882 5.1547C34.8882 5.1547 34.8882 5.1547 34.8286 5.09509Z" fill="#9B9B9B"/>
<path d="M14.3225 5.21403L14.3821 5.15442C14.3821 5.21403 14.3821 5.21403 14.3225 5.21403Z" fill="#9B9B9B"/>
<path d="M14.2629 5.27323L14.3225 5.21362C14.3225 5.27323 14.3225 5.27323 14.2629 5.27323Z" fill="#9B9B9B"/>
<path d="M35.0074 5.21362L35.0671 5.27323C35.0074 5.27323 35.0074 5.27323 35.0074 5.21362Z" fill="#9B9B9B"/>
<path d="M14.2032 5.39189L14.2629 5.33228L14.2032 5.39189Z" fill="#9B9B9B"/>
<path d="M35.0671 5.27295L35.1267 5.33256C35.0671 5.39217 35.0671 5.33256 35.0671 5.27295Z" fill="#9B9B9B"/>
<path d="M14.084 5.45109L14.1436 5.39148C14.2032 5.39148 14.1436 5.45109 14.084 5.45109Z" fill="#9B9B9B"/>
<path d="M35.1267 5.39148L35.1863 5.45109L35.1267 5.39148Z" fill="#9B9B9B"/>
<path d="M14.0244 5.51042L14.084 5.45081C14.1436 5.45081 14.084 5.51042 14.0244 5.51042Z" fill="#9B9B9B"/>
<path d="M13.9648 5.56974L14.0244 5.51013C14.0244 5.56974 14.0244 5.56974 13.9648 5.56974Z" fill="#9B9B9B"/>
<path d="M34.9478 5.15442L35.0074 5.21403C34.9478 5.21403 34.9478 5.21403 34.9478 5.15442Z" fill="#9B9B9B"/>
<path d="M9.49398 54.597C8.89787 53.8263 8.36137 53.0556 7.88448 52.2849C7.58643 51.6921 7.22876 51.04 6.93071 50.4471C6.57304 49.4986 6.27499 48.6094 5.91732 47.6608C5.7981 46.9494 5.61927 46.2973 5.50005 45.5859C5.44044 45.1709 5.38082 44.6966 5.38082 44.2816C5.2616 43.1553 5.2616 42.0881 5.32121 40.9618C5.44044 39.2425 5.7981 37.5826 6.39421 35.9819C7.22876 33.6106 8.5402 31.4764 10.2689 29.5793C11.8784 27.8008 13.7263 26.378 15.8723 25.2516C17.7799 24.2438 19.8067 23.6509 21.9526 23.3545C23.0853 23.1767 24.2179 23.1174 25.3505 23.1767C27.8541 23.2359 30.2982 23.8288 32.5634 24.8366C34.8882 25.8444 36.9746 27.3265 38.7629 29.1643C41.4454 31.9506 43.1145 35.2705 43.8298 39.124C44.0683 40.3096 44.1279 41.4953 44.1279 42.7403C44.1279 44.1038 43.9491 45.4673 43.651 46.7716C43.5914 46.9494 43.5914 47.068 43.5318 47.2458C43.1145 48.6093 42.6376 49.9729 42.0415 51.2178C41.7435 51.8107 41.3858 52.3442 41.0877 52.9371C40.8493 53.2335 40.6705 53.5892 40.432 53.8856C39.8359 54.597 39.2398 55.3084 38.6437 56.0198C38.286 56.3755 37.9284 56.6719 37.5707 57.0276C36.14 58.2726 34.5902 59.2804 32.8614 60.1104C29.7617 61.5332 26.5427 62.126 23.2045 61.8296C18.8529 61.4739 15.0378 59.8733 11.7592 57.0276L11.6996 56.9684C11.2823 56.5534 10.865 56.1977 10.5074 55.7827C10.1497 55.3677 9.85164 55.012 9.49398 54.597ZM24.6351 23.7102C14.0244 23.8288 6.03654 32.0099 5.73849 41.7917C5.38082 52.9963 14.1436 60.9404 23.9198 61.2368C35.1863 61.5332 43.1741 52.8185 43.4126 43.096C43.7702 32.0692 35.0074 23.7695 24.6351 23.7102Z" fill="#62A301"/>
<path d="M25.3505 18.5525C26.9004 18.5525 28.3906 18.7303 29.8809 19.086C29.7021 20.1531 29.404 21.2203 29.106 22.2874C28.0926 22.1095 27.0196 22.0502 26.0062 21.9317C25.7081 21.8724 25.4697 21.8724 25.1716 21.8131C25.2313 20.746 25.2909 19.6789 25.3505 18.5525Z" fill="#888888"/>
<path d="M29.106 22.2874C29.404 21.2203 29.6425 20.1532 29.8809 19.0861C30.6559 19.2046 31.4308 19.4418 32.2057 19.6789C32.6826 19.7975 33.0999 19.9753 33.5768 20.1532C33.6364 20.2125 33.7556 20.2124 33.8152 20.2717C33.8152 20.4496 33.8152 20.5682 33.7556 20.6867C33.5768 21.161 33.3383 21.6353 33.1595 22.0502C32.9807 22.4652 32.8615 22.8802 32.623 23.2359C32.3846 23.2359 32.1461 23.0581 31.9077 22.9988C31.1327 22.7616 30.3578 22.4059 29.4636 22.3467C29.2848 22.4059 29.2252 22.3467 29.106 22.2874Z" fill="#9B9B9B"/>
<path d="M18.376 22.7616C18.376 22.1688 18.078 21.576 17.9587 20.9831C17.8395 20.5089 17.6011 20.0346 17.6011 19.5603C18.9125 19.1453 20.2239 18.9082 21.5354 18.7303C21.6546 19.8567 21.8334 20.9238 21.9527 22.0502C20.7008 22.1688 19.5682 22.4059 18.376 22.7616Z" fill="#BABABA"/>
<path d="M21.9527 22.0502C21.8334 20.9238 21.6546 19.8567 21.5354 18.7304C22.7872 18.5525 24.039 18.4932 25.3505 18.5525C25.2909 19.6789 25.2313 20.746 25.2313 21.8724C24.2775 21.7538 23.3237 21.991 22.3699 22.0502C22.1911 22.0502 22.0719 22.0502 21.9527 22.0502Z" fill="#9B9B9B"/>
<path d="M32.5038 23.2952C32.8018 22.9395 32.8615 22.5246 33.0403 22.1096C33.2787 21.6353 33.4576 21.2203 33.6364 20.746C33.696 20.6275 33.7556 20.4496 33.696 20.3311C34.2325 20.3903 34.7094 20.746 35.1863 20.9239C35.4247 20.9832 35.6036 21.1017 35.842 21.2203C35.9612 21.2796 36.0804 21.3982 36.2593 21.4574C35.7228 22.406 35.1863 23.3545 34.5902 24.3031C33.9345 24.0066 33.2191 23.6509 32.5038 23.2952Z" fill="#BABABA"/>
<path d="M42.0415 51.1585C42.6973 49.8543 43.1741 48.55 43.5318 47.1865C43.9491 47.3051 44.426 47.2458 44.8433 47.2458C44.8433 47.6015 44.6644 47.8979 44.6048 48.2536C44.3068 49.1429 44.0087 50.0321 43.5914 50.8621C43.5318 50.9807 43.4722 51.04 43.4126 51.1585C42.9953 51.1585 42.5184 51.1585 42.0415 51.1585Z" fill="#676767"/>
<path d="M5.91733 47.6608C6.275 48.6093 6.57305 49.4986 6.93072 50.4471C6.45383 50.4471 5.97694 50.3878 5.55967 50.5064C5.26161 49.9728 5.08278 49.38 4.90395 48.7872C4.84434 48.4315 4.6655 48.0758 4.60589 47.72C5.02317 47.6015 5.44045 47.7201 5.91733 47.6608Z" fill="#676767"/>
<path d="M38.6437 55.9605C39.2398 55.2491 39.8359 54.5377 40.432 53.8263C40.9685 54.0041 41.505 53.8856 41.9819 53.8856C41.7435 54.3599 41.3858 54.7156 41.0878 55.1305C40.8493 55.4862 40.5513 55.7827 40.2532 56.0791C39.8359 56.0791 39.359 56.0791 38.9418 56.0791C38.8822 56.0791 38.7033 56.0791 38.6437 55.9605Z" fill="#BABABA"/>
<path d="M10.4478 55.7234C10.865 56.1384 11.2823 56.4941 11.64 56.9091C11.5804 56.9683 11.5208 57.0276 11.4612 57.0276C10.9843 57.0276 10.4478 57.0869 9.97088 57.0276C9.61322 56.9683 9.43439 56.6126 9.19594 56.3755C9.07672 56.2569 9.01711 56.1384 8.89789 56.0791C8.89789 56.0198 8.83828 55.9605 8.83828 55.9605C9.25555 55.842 9.67283 55.9012 10.0901 55.9012C10.2689 55.842 10.3882 55.9012 10.4478 55.7234Z" fill="#CFCFCF"/>
<path d="M38.6437 55.9606C38.7033 56.0791 38.8226 56.0791 39.0014 56.0791C39.4187 56.0791 39.8956 56.0791 40.3128 56.0791C40.0744 56.4941 39.7167 56.7313 39.4187 57.0277C39.3591 57.087 39.2994 57.1462 39.2398 57.087C38.7629 56.9684 38.2861 57.087 37.8092 57.0277C37.69 57.0277 37.6303 57.0277 37.5707 56.9091C37.9284 56.6127 38.2861 56.257 38.6437 55.9606Z" fill="#CFCFCF"/>
<path d="M90.4455 45.5266C90.4455 45.0523 90.4455 44.578 90.4455 44.163C90.4455 43.9852 90.5052 43.9259 90.684 43.9259C91.1609 43.9259 91.5782 43.9259 92.055 43.9259C92.7108 43.9259 93.1281 44.3409 93.3069 44.993C93.3665 45.408 93.4261 45.7637 93.3069 46.1787C93.1877 46.8308 92.7704 47.1865 92.1147 47.1865C91.6378 47.1865 91.1609 47.1865 90.7436 47.1865C90.5648 47.1865 90.5052 47.1272 90.5052 46.9494C90.5052 46.9494 90.5052 46.9494 90.5052 46.8901C90.4456 46.4751 90.4455 46.0008 90.4455 45.5266Z" fill="#FEFEFD"/>
<path d="M42.0415 51.1586C42.5184 51.1586 42.9953 51.1586 43.5318 51.1586C43.2934 51.8107 42.9357 52.3442 42.578 52.9371C42.1011 52.9371 41.5647 52.9964 41.0878 52.8778C41.3858 52.285 41.6839 51.7514 42.0415 51.1586Z" fill="#888888"/>
<path d="M41.0878 52.8778C41.5647 52.9964 42.1011 52.9371 42.578 52.9371C42.4588 53.2928 42.2204 53.5892 42.0415 53.8856C41.505 53.8856 40.9685 54.0042 40.4917 53.8263C40.6705 53.5299 40.8493 53.1742 41.0878 52.8778Z" fill="#9B9B9B"/>
<path d="M5.50005 50.5064C5.97694 50.3878 6.39421 50.4471 6.8711 50.4471C7.16915 51.0399 7.52682 51.692 7.82487 52.2849C7.76526 52.4034 7.58643 52.4034 7.46721 52.4034C7.10954 52.4034 6.75188 52.4034 6.3346 52.4034C6.21538 52.1663 6.03655 51.9292 5.91733 51.692C5.85772 51.277 5.61927 50.9213 5.50005 50.5064Z" fill="#888888"/>
<path d="M10.4478 55.7233C10.3881 55.9011 10.2093 55.8419 10.0901 55.8419C9.67282 55.9011 9.25554 55.7826 8.83827 55.9011C8.4806 55.4862 8.12294 55.1304 7.88449 54.7155C8.24216 54.5969 8.54021 54.6562 8.89788 54.6562C9.07671 54.6562 9.25554 54.6562 9.49399 54.6562C9.85165 55.0119 10.1497 55.3676 10.4478 55.7233Z" fill="#BABABA"/>
<path d="M62.0708 35.6262C62.0112 35.6262 61.9516 35.6262 61.9516 35.6262C60.6401 35.6262 60.1036 35.0334 60.3421 33.7291C60.4017 33.1956 60.4613 32.6028 60.5805 32.0692C60.819 30.8835 61.4747 30.35 62.6669 30.35C62.8457 30.35 63.0246 30.35 63.2034 30.35C64.0976 30.35 64.6341 30.8242 64.5744 31.7135C64.5744 32.5435 64.4552 33.4327 64.2168 34.2627C63.9187 35.2112 63.263 35.6262 62.0708 35.6262Z" fill="#79C301"/>
<path d="M105.11 30.35C106.481 30.35 106.958 30.8242 106.839 32.1878C106.779 32.8399 106.719 33.4327 106.541 34.0848C106.302 35.152 105.646 35.6855 104.573 35.6855C104.335 35.6855 104.037 35.6855 103.798 35.6262C102.904 35.5077 102.547 35.0334 102.606 34.1441C102.666 33.4327 102.725 32.7213 102.904 32.0099C103.083 30.8242 103.739 30.35 105.11 30.35Z" fill="#79C301"/>
<path d="M84.7229 30.35C84.9614 30.35 85.1402 30.35 85.3786 30.4093C86.094 30.5278 86.4516 30.9428 86.4516 31.6542C86.4516 32.5435 86.3324 33.4327 86.094 34.322C85.8555 35.0927 85.319 35.5077 84.5441 35.6262C84.1268 35.6855 83.6499 35.6855 83.2326 35.5669C82.5173 35.4484 82.2192 35.0334 82.2192 34.2627C82.2192 33.4327 82.3385 32.5435 82.5769 31.7135C82.875 30.7057 83.5307 30.35 84.7229 30.35Z" fill="#79C301"/>
<path d="M32.2057 8.59285C32.6826 9.06712 33.1595 9.54139 33.5768 10.0749C34.0537 10.6678 34.4113 11.2606 34.7094 11.9127C34.8286 12.2092 34.5306 12.1499 34.3517 12.2092C33.3383 10.5492 31.9673 9.1264 30.2386 8.11858C24.9332 5.09511 18.1972 6.87363 14.9782 12.2092C14.9186 12.3277 14.859 12.387 14.7994 12.5056C14.5013 12.5056 14.5013 12.3277 14.5609 12.1499C14.9782 11.2606 15.4551 10.4899 16.1108 9.77853C16.23 9.65996 16.2896 9.60067 16.3492 9.42282C16.4685 9.36354 16.5281 9.24497 16.6473 9.18569C17.3626 8.53357 18.1376 7.94073 18.9721 7.46646C21.1777 6.22151 23.6218 5.80652 26.1254 6.10294C27.9138 6.28079 29.5829 6.87363 31.0731 7.88145C31.4308 8.0593 31.8481 8.35572 32.2057 8.59285Z" fill="#676767"/>
<path d="M36.0208 16.8926C35.9612 17.0111 36.0805 17.189 35.9016 17.2483C35.7824 16.1219 35.544 14.9955 35.1863 13.9284C35.3651 13.8691 35.4843 13.9284 35.544 14.1655C35.842 15.0548 35.9016 15.944 36.0208 16.8926Z" fill="#9B9B9B"/>
<path d="M16.3492 8.35567C17.005 7.82212 17.6607 7.22928 18.376 6.75501C20.1047 5.68791 21.9527 5.09507 23.9794 4.9765C27.0196 4.79865 29.7021 5.62862 32.0865 7.5257C32.1461 7.58498 32.2057 7.58499 32.2654 7.58499C32.8019 8.11854 33.398 8.59281 33.8152 9.24493C33.4576 9.12636 33.2191 8.82994 32.8615 8.59281L32.8019 8.53352C30.0598 6.45859 26.96 5.39149 23.5026 5.68791C22.0123 5.80647 20.5816 6.22146 19.2106 6.87358C17.9587 7.46642 16.8261 8.29639 15.8127 9.24493L15.7531 9.18565C15.8724 8.82994 16.1108 8.59281 16.3492 8.35567Z" fill="#E5E5E5"/>
<path d="M15.7531 9.12637C16.7665 8.17783 17.8991 7.40714 19.1509 6.75502C20.522 6.1029 21.9527 5.68791 23.4429 5.56934C26.96 5.27293 30.0001 6.28075 32.7422 8.41496L32.8018 8.47425C32.623 8.53353 32.3846 8.41496 32.2057 8.53353C31.8481 8.23711 31.4308 7.99998 31.0731 7.70356C29.5829 6.75502 27.9138 6.16218 26.1254 5.92505C23.6218 5.62863 21.2373 6.04362 18.9721 7.28857C18.1376 7.76284 17.3626 8.35568 16.6473 9.0078C16.5281 9.06708 16.4685 9.18565 16.3492 9.24494C16.1108 9.24494 15.8724 9.24494 15.6339 9.18565C15.6935 9.24494 15.6935 9.18565 15.7531 9.12637Z" fill="#9B9B9B"/>
<path d="M15.7531 9.12642C15.7531 9.1857 15.6935 9.18571 15.6935 9.24499C15.5743 9.30427 15.5147 9.48212 15.3955 9.48212C15.3955 9.24499 15.6339 9.18571 15.7531 9.06714C15.6935 9.12642 15.6935 9.12642 15.7531 9.12642Z" fill="#CFCFCF"/>
<path d="M33.8748 9.42289C33.8152 9.3636 33.7556 9.3636 33.8152 9.30432C33.8748 9.30432 33.9344 9.3636 33.8748 9.42289C33.9344 9.42289 33.9344 9.42289 33.8748 9.42289Z" fill="#E5E5E5"/>
<path d="M33.9344 9.42285L33.9941 9.48246C33.9344 9.48246 33.9344 9.48246 33.9344 9.42285Z" fill="#E5E5E5"/>
<path d="M33.9941 9.48206C33.9941 9.48206 34.0537 9.54167 33.9941 9.54167C33.9941 9.54167 33.9941 9.54167 33.9941 9.48206Z" fill="#E5E5E5"/>
<path d="M24.6352 23.7102C34.9478 23.7695 43.7703 32.0692 43.4722 43.096C43.1741 52.8185 35.1863 61.5332 23.9794 61.2368C14.2033 60.9996 5.44046 52.9963 5.79812 41.7917C6.09618 32.0099 14.0244 23.8288 24.6352 23.7102ZM15.932 26.6744C15.7531 26.5558 15.6339 26.7337 15.5147 26.793C14.9782 27.1487 14.5013 27.4451 13.9648 27.8008C12.713 28.69 11.5804 29.7571 10.6266 30.9428C9.37477 32.4249 8.421 34.0256 7.70567 35.8041C6.87112 37.8197 6.45384 39.9539 6.39423 42.1474C6.33462 43.2738 6.45384 44.4002 6.63267 45.4673C6.99034 47.7201 7.76528 49.7357 8.9575 51.6921C9.97088 53.4113 11.2823 54.8934 12.7726 56.1977C14.1436 57.3833 15.6935 58.3319 17.3626 59.0433C20.0451 60.229 22.8468 60.7032 25.7678 60.5254C26.7215 60.4661 27.6157 60.3475 28.5099 60.1697C30.4174 59.7547 32.2057 59.0433 33.8748 58.0355C35.6036 57.0276 37.0938 55.7827 38.4053 54.2413C39.1802 53.352 39.8359 52.3442 40.4917 51.3364C41.0878 50.4471 41.4454 49.4393 41.8031 48.4315C42.1011 47.483 42.3396 46.5344 42.4588 45.5859C42.6376 44.2816 42.9357 43.0367 42.7569 41.7324C42.6376 40.8432 42.578 39.8946 42.3992 39.0054C41.9819 36.9305 41.207 34.9741 40.134 33.1363C39.3591 31.8321 38.4649 30.7057 37.3919 29.6386C36.4381 28.69 35.4247 27.9193 34.2921 27.1487C34.0537 26.9708 33.8748 26.793 33.5768 26.793C33.398 26.7337 33.2191 26.6151 33.0403 26.5558C32.2654 26.0223 31.4904 25.6073 30.6559 25.2516C28.9271 24.4809 27.0792 24.0659 25.1717 24.0066C23.741 23.9473 22.3699 24.0659 20.9989 24.4216C19.9259 24.6587 18.9125 25.0737 17.8991 25.548C17.303 25.9037 16.6473 26.3187 15.932 26.6744Z" fill="#70B900"/>
<path d="M15.932 26.6743C16.5877 26.3186 17.2434 25.8444 17.9587 25.4887C18.9721 25.0144 19.9855 24.5994 21.0585 24.3623C22.4296 24.0066 23.8602 23.888 25.2313 23.9473C27.1388 24.0066 28.9271 24.4808 30.7155 25.1923C31.55 25.548 32.325 26.0222 33.0999 26.4965C33.2787 26.6151 33.4576 26.6743 33.6364 26.7336C33.6364 26.7929 33.6364 26.8522 33.696 26.8522C34.471 27.3857 35.1863 28.0972 35.9016 28.7493C36.0208 29.0457 36.2593 29.1643 36.4381 29.4014C36.8554 29.9349 37.2727 30.4685 37.6303 31.0613C37.6303 31.1799 37.7496 31.2985 37.8092 31.3578C37.9284 31.6542 37.9284 31.7135 37.5707 31.7135C37.1534 31.7135 36.7958 31.7135 36.3785 31.6542C36.0208 31.2985 35.6632 30.9428 35.3055 30.5871C34.1133 29.4607 32.7422 28.5714 31.252 27.9193C29.5232 27.1486 27.7349 26.6743 25.8274 26.5558C24.039 26.4372 22.2507 26.6151 20.522 27.0893C18.0183 27.8007 15.8724 28.9864 13.9648 30.7649C13.4879 31.2392 13.0706 31.7135 12.5938 32.1877C12.1765 32.1877 11.8188 32.1877 11.4015 32.1877C11.2823 32.1877 11.1631 32.1877 11.1035 32.1284C11.0439 32.0099 11.1631 31.9506 11.1631 31.832C11.4015 31.4763 11.64 31.1799 11.8188 30.7649C11.9976 30.7056 11.9976 30.4685 12.1765 30.2907C12.713 29.6978 13.1899 29.105 13.6668 28.5121C14.4417 27.9193 15.157 27.2672 15.932 26.6743Z" fill="#A1E631"/>
<path d="M35.9016 28.8678C35.1863 28.2157 34.5306 27.5636 33.696 26.9707C33.6364 26.9707 33.6364 26.8522 33.6364 26.8522C33.9345 26.8522 34.1729 27.0893 34.3517 27.2079C35.4247 27.9193 36.4977 28.7493 37.4515 29.6978C38.5245 30.7649 39.4187 31.8913 40.1936 33.1955C41.2666 35.0333 42.0415 36.9897 42.4588 39.0646C42.6376 39.9539 42.6973 40.9024 42.8165 41.7917C42.9953 43.0959 42.6376 44.4002 42.5184 45.6451C42.3992 46.6529 42.2204 47.6015 41.8627 48.4907C41.505 49.4985 41.0878 50.5064 40.5513 51.3956C39.8955 52.4034 39.2398 53.352 38.4649 54.3005C37.1534 55.8419 35.6632 57.0869 33.9345 58.0947C32.2653 59.1025 30.477 59.8139 28.5695 60.2289C27.6753 60.4067 26.7811 60.5253 25.8274 60.5846C22.9064 60.8217 20.1047 60.2882 17.4222 59.1025C15.7531 58.3911 14.2032 57.4426 12.8322 56.2569C11.2823 54.9527 10.0305 53.4706 9.0171 51.7513C7.88449 49.795 7.04994 47.7793 6.69228 45.5265C6.51345 44.4002 6.39422 43.2738 6.45383 42.2067C6.51345 40.0132 6.93072 37.9382 7.76527 35.8633C8.4806 34.0848 9.43438 32.4248 10.6862 31.002C11.6996 29.8164 12.7726 28.7493 14.0244 27.86C14.5609 27.5043 15.0378 27.1486 15.5743 26.8522C15.6935 26.7929 15.8127 26.615 15.9916 26.7336C15.2166 27.3264 14.4417 27.9786 13.7264 28.6307C13.6071 28.6307 13.5475 28.69 13.4283 28.7493C12.4745 29.4607 11.64 30.2906 10.9247 31.1799C9.79204 32.5434 8.89788 34.0255 8.24216 35.6262C7.40761 37.5825 6.93072 39.6575 6.8115 41.7917C6.75189 43.0959 6.87111 44.4002 7.10956 45.6451C7.64605 48.2536 8.59983 50.6842 10.2093 52.8777C11.2227 54.3005 12.4149 55.4862 13.786 56.5533C15.0378 57.5019 16.3492 58.2725 17.7799 58.8654C19.7471 59.6953 21.8334 60.1696 23.9794 60.2882C25.112 60.3475 26.2446 60.2882 27.3773 60.051C29.3444 59.7546 31.1923 59.1025 32.9211 58.2133C34.8882 57.1461 36.6169 55.8419 38.1072 54.1227C39.1802 52.8777 40.0744 51.5142 40.7301 50.0914C41.7435 47.9572 42.3396 45.6451 42.4588 43.2738C42.5184 41.9695 42.3992 40.6653 42.1607 39.361C41.6243 36.7526 40.6109 34.2626 39.061 32.1284C38.3457 31.1206 37.5111 30.1721 36.5573 29.3421C36.3785 29.105 36.1997 28.8678 35.9016 28.8678Z" fill="#79C301"/>
<path d="M11.8784 30.8242C11.6996 31.2392 11.4611 31.5356 11.2227 31.8913C11.1631 31.9506 11.1035 32.0692 11.1631 32.1877C11.2227 32.3063 11.3419 32.247 11.4611 32.247C11.8784 32.247 12.2361 32.247 12.6534 32.247C12.3553 32.662 12.0573 33.077 11.7592 33.492C10.865 34.7962 10.2093 36.1598 9.79204 37.6418C9.37477 39.0647 9.13632 40.4875 9.07671 41.9695C9.0171 42.7995 9.13632 43.6295 9.25554 44.4595C9.49399 46.2973 10.0901 48.0758 10.9843 49.6764C11.9976 51.5735 13.4283 53.1742 15.0974 54.5377C17.5415 56.4348 20.4028 57.5612 23.5025 57.7983C24.8736 57.9169 26.2446 57.8576 27.6157 57.6204C29.9405 57.2055 32.0865 56.2569 33.9941 54.8934C35.1863 54.0041 36.2593 52.9963 37.1534 51.8106C38.1668 50.5064 38.9418 49.0836 39.5379 47.5422C40.0744 46.0008 40.3724 44.4595 40.432 42.8588C40.4916 41.7917 40.432 40.7839 40.2532 39.7168C40.0148 38.294 39.5975 36.9897 39.0014 35.6855C38.3457 34.2627 37.4515 32.9584 36.4381 31.7728C36.7958 31.8913 37.213 31.832 37.6303 31.832C37.988 31.832 37.988 31.7728 37.8688 31.4763C37.8092 31.3578 37.6899 31.2985 37.6899 31.1799C37.8092 31.1799 37.9284 31.2985 37.988 31.3578C38.4053 31.8913 38.8822 32.4249 39.2398 33.0177C39.9552 34.0848 40.4916 35.2112 40.9685 36.3969C41.6243 38.0568 41.9819 39.7761 42.0415 41.5546C42.1011 42.5624 42.0415 43.5702 41.9223 44.578C41.6839 46.2973 41.2666 47.9572 40.5513 49.5579C39.4187 52.0478 37.8092 54.182 35.6036 55.9605C33.9941 57.2647 32.2653 58.2133 30.2982 58.8654C28.9271 59.3397 27.4965 59.6361 26.0062 59.7547C24.7544 59.8732 23.5025 59.8139 22.2507 59.6361C20.7008 59.399 19.2106 58.984 17.7799 58.3911C15.9916 57.6204 14.3821 56.6126 12.9514 55.3084C11.5804 54.0634 10.5074 52.6999 9.5536 51.0992C8.18255 48.7279 7.46722 46.1787 7.28838 43.4516C7.16916 42.0288 7.28838 40.6653 7.58644 39.2425C8.18255 36.2783 9.43438 33.6698 11.3419 31.3578C11.4611 31.1799 11.5804 30.8835 11.8784 30.8242Z" fill="#88DD00"/>
<path d="M36.4381 31.7727C37.4515 32.9584 38.3457 34.2626 39.0014 35.6854C39.5975 36.9897 40.0148 38.2939 40.2532 39.7167C40.432 40.7246 40.4917 41.7917 40.432 42.8588C40.3724 44.4594 40.0744 46.0601 39.5379 47.5422C38.9418 49.0836 38.1668 50.5064 37.1534 51.8106C36.2593 52.9963 35.1863 54.0041 33.9941 54.8934C32.0865 56.2569 29.9405 57.2054 27.6157 57.6204C26.2447 57.8575 24.8736 57.9168 23.5026 57.7983C20.4028 57.5611 17.6011 56.494 15.0974 54.5377C13.3687 53.2334 11.9977 51.5735 10.9843 49.6764C10.0901 48.0165 9.49399 46.2972 9.25555 44.4594C9.13633 43.6295 9.01711 42.7995 9.07672 41.9695C9.13633 40.4874 9.31516 39.0646 9.79205 37.6418C10.2689 36.1597 10.9247 34.7962 11.7592 33.4919C12.0573 33.077 12.3553 32.662 12.6534 32.247C13.1303 31.7727 13.5475 31.2984 14.0244 30.8242C15.8724 29.0457 18.078 27.86 20.5816 27.1486C22.3103 26.6743 24.0987 26.4965 25.887 26.615C27.7945 26.7336 29.5829 27.2079 31.3116 27.9786C32.8019 28.69 34.1729 29.5792 35.3651 30.6463C35.7228 31.0613 36.0804 31.417 36.4381 31.7727ZM12.713 50.0914C12.7726 50.3878 12.8322 50.6249 12.8322 50.9214C12.8918 51.4549 13.1899 51.692 13.7264 51.7513C13.8456 51.7513 13.9052 51.7513 14.0244 51.7513C14.084 51.7513 14.084 51.7513 14.1436 51.7513C14.1436 51.8699 14.2629 51.9885 14.3225 52.0477C15.5743 53.352 17.005 54.3598 18.6145 55.1305C20.224 55.9012 21.8931 56.3162 23.6218 56.4347C24.6948 56.494 25.7678 56.494 26.8408 56.3162C28.2714 56.079 29.6425 55.7233 30.8943 55.0712C32.9211 54.1227 34.5902 52.7592 36.0208 50.9806C37.1534 49.6171 37.9284 48.0757 38.4649 46.3565C39.0014 44.578 39.2398 42.7995 39.061 40.9617C38.9418 39.8946 38.7629 38.8275 38.4053 37.7604C37.7496 35.804 36.7362 34.0255 35.3651 32.5434C33.9941 31.0613 32.3846 29.9349 30.5366 29.105C28.9868 28.3935 27.3773 28.0378 25.7082 27.9193C24.7544 27.86 23.741 27.9193 22.7872 28.0378C21.4162 28.2157 20.1643 28.5714 18.9125 29.1642C16.6473 30.1721 14.7398 31.7134 13.2495 33.6698C11.4015 36.1597 10.5074 38.946 10.4478 42.0288C10.4478 42.9773 10.5074 43.8666 10.6862 44.8151C10.9247 46.1787 11.4015 47.4829 11.9976 48.6686C12.1765 49.0243 12.2957 49.4393 12.6534 49.6171C12.6534 49.8542 12.6534 49.9728 12.713 50.0914Z" fill="#7ED001"/>
<path d="M11.8784 30.8243C11.5804 30.8836 11.4612 31.18 11.2823 31.4171C9.37478 33.7292 8.12295 36.3377 7.52684 39.3018C7.2884 40.6654 7.16918 42.0882 7.22879 43.511C7.40762 46.238 8.12295 48.7872 9.494 51.1586C10.3882 52.7592 11.5208 54.1228 12.8918 55.3677C14.3225 56.672 15.932 57.6798 17.7203 58.4505C19.151 59.0433 20.6412 59.4583 22.1911 59.6954C23.4429 59.8733 24.6948 59.8733 25.9466 59.814C27.4369 59.6954 28.8675 59.399 30.2386 58.9247C32.2057 58.2726 33.9345 57.2648 35.544 56.0198C37.69 54.3006 39.3591 52.1664 40.4917 49.6172C41.207 48.0165 41.6243 46.3566 41.8627 44.6374C41.9819 43.6295 42.0415 42.6217 41.9819 41.6139C41.8627 39.8354 41.505 38.1162 40.9089 36.4562C40.4321 35.2706 39.8956 34.1442 39.1802 33.0771C38.8226 32.4842 38.3457 31.9507 37.9284 31.4171C37.8688 31.2985 37.7496 31.2393 37.6303 31.2393C37.2131 30.7057 36.7958 30.1722 36.4381 29.5793C36.2593 29.3422 35.9612 29.2236 35.9016 28.9272C36.1997 28.9272 36.3785 29.2236 36.617 29.4015C37.5707 30.2314 38.4053 31.18 39.1206 32.1878C40.7301 34.3813 41.7435 36.8119 42.2204 39.4204C42.4588 40.7247 42.578 42.0289 42.5184 43.3331C42.3396 45.7045 41.8031 47.9573 40.7897 50.1508C40.0744 51.6328 39.2398 52.9964 38.1668 54.182C36.6766 55.9013 34.9479 57.2055 32.9807 58.2726C31.252 59.2212 29.3444 59.814 27.4369 60.1104C26.3043 60.2883 25.1717 60.4068 24.0391 60.3475C21.8931 60.229 19.8067 59.7547 17.8395 58.9247C16.4089 58.3319 15.0974 57.5612 13.8456 56.6127C12.4745 55.5456 11.2823 54.3006 10.2689 52.9371C8.65945 50.7436 7.70568 48.313 7.16918 45.7045C6.93073 44.4595 6.81151 43.1553 6.87112 41.851C6.99034 39.7168 7.46723 37.6419 8.30179 35.6855C9.01712 34.0849 9.91128 32.6028 10.9843 31.2393C11.7592 30.35 12.5342 29.52 13.4879 28.8086C13.6072 28.7493 13.6668 28.6901 13.786 28.6901C13.3091 29.2829 12.7726 29.8757 12.2957 30.4686C12.0573 30.5279 12.0573 30.765 11.8784 30.8243Z" fill="#7ED001"/>
<path d="M14.084 51.7514C14.0244 51.7514 14.0244 51.7514 13.9648 51.7514C13.9648 51.6328 13.8456 51.5735 13.786 51.455C13.6667 51.2178 13.3687 51.0993 13.3687 50.8028C14.5013 50.8028 15.5743 50.8028 16.7069 50.8028C17.303 50.8028 17.5415 50.5657 17.5415 49.9729C17.5415 46.653 17.5415 43.3924 17.5415 40.0725C17.5415 39.4204 17.303 39.2425 16.6473 39.2425C15.157 39.2425 13.6071 39.2425 12.1169 39.2425C12.1169 39.1832 12.1169 39.0647 12.1765 39.0054C12.4745 37.8197 12.9514 36.7526 13.5475 35.7448C14.1436 34.737 14.859 33.8477 15.6935 33.077C16.8261 32.0099 18.1376 31.1207 19.5682 30.4685C20.9989 29.8757 22.5488 29.4607 24.0987 29.4014C25.0524 29.3421 25.9466 29.4014 26.9004 29.52C26.4831 29.8757 26.3043 30.35 26.1254 30.8242C25.887 31.4171 25.7678 32.0099 25.4697 32.5435C24.6948 33.9663 24.039 35.5077 23.4429 37.049C23.1449 37.879 22.5488 38.5311 21.8334 39.0054C21.1181 39.4797 20.3432 39.7761 19.5086 39.9539C19.2702 40.0132 19.2106 40.1318 19.2106 40.3689C19.2702 43.4517 19.3298 46.5344 19.3894 49.6172C19.3894 49.8543 19.5086 49.9136 19.6874 49.9136C20.522 49.9729 21.3565 50.0322 22.1911 50.21C24.2179 50.625 26.185 51.2178 28.2118 51.3364C29.5829 51.455 30.9539 51.6328 32.325 51.5735C33.4576 51.5143 34.4709 51.1586 35.0671 50.1507C35.3055 50.5064 35.1863 50.8621 35.0074 51.1585C34.5306 51.87 33.8152 52.2257 32.9807 52.4035C32.8615 52.4035 32.7422 52.4628 32.623 52.5221C32.0865 52.9371 31.4904 53.352 30.8943 53.6485C29.5232 54.3599 28.0926 54.8341 26.6023 55.0713C25.5889 55.2491 24.5159 55.2491 23.5025 55.1306C22.2507 55.0713 21.0585 54.7156 19.9259 54.3006C18.5548 53.767 17.2434 52.9963 16.1704 51.9885C16.0512 51.87 15.8723 51.8107 15.6935 51.8107C15.157 51.7514 14.6205 51.7514 14.084 51.7514Z" fill="#62A301"/>
<path d="M26.9004 29.4607C25.9466 29.3421 25.0524 29.2828 24.0986 29.3421C22.4892 29.4014 20.9989 29.7571 19.5682 30.4092C18.1376 31.0613 16.8261 31.8913 15.6935 33.0177C14.859 33.7884 14.1436 34.7369 13.5475 35.6855C12.9514 36.6933 12.4745 37.8197 12.1765 38.9461C12.1765 39.0053 12.1765 39.1239 12.1169 39.1832C11.5208 39.2425 11.3419 39.4796 11.4015 40.0725C11.4015 40.191 11.4015 40.2503 11.4015 40.3689C11.4015 40.4874 11.3419 40.606 11.3419 40.6653C11.4015 41.1988 11.5208 41.6731 11.5804 42.2067C11.7592 43.2145 11.8784 44.2816 11.9976 45.2894C12.1169 46.1787 12.2361 47.0086 12.3553 47.8979C12.4149 48.4907 12.5937 49.0836 12.5937 49.6764C12.2361 49.4393 12.1169 49.0243 11.938 48.7279C11.2823 47.4829 10.865 46.1787 10.6266 44.8744C10.4478 43.9852 10.3285 43.0366 10.3881 42.0881C10.4478 39.0053 11.4015 36.219 13.1899 33.7291C14.6801 31.7135 16.5877 30.2314 18.8529 29.2235C20.1047 28.69 21.4162 28.3343 22.7276 28.0971C23.6814 27.9786 24.6948 27.9193 25.6485 27.9786C27.3176 28.0971 28.9271 28.4528 30.477 29.1643C32.3249 29.9942 33.9344 31.1206 35.3055 32.6027C36.6765 34.1441 37.7495 35.8633 38.3456 37.8197C38.7033 38.8868 38.8821 39.8946 39.0014 41.021C39.1802 42.8588 38.9418 44.6373 38.4053 46.4158C37.8688 48.0757 37.0938 49.6171 35.9612 51.0399C34.5902 52.7592 32.8614 54.182 30.8347 55.1305C29.5232 55.7233 28.2118 56.1383 26.7811 56.3755C25.7081 56.5533 24.6351 56.5533 23.5621 56.494C21.8334 56.3755 20.1643 55.9605 18.5548 55.1898C16.9453 54.4191 15.5147 53.352 14.2629 52.107C14.2032 52.0478 14.084 51.9292 14.084 51.8106C14.6205 51.8106 15.157 51.8106 15.6935 51.8106C15.8723 51.8106 16.0512 51.8699 16.1704 51.9885C17.303 52.9963 18.5548 53.767 19.9259 54.3005C21.0585 54.7748 22.2507 55.0712 23.5025 55.1305C24.5159 55.1898 25.5293 55.1898 26.6023 55.0712C28.1522 54.8341 29.5828 54.3598 30.8943 53.6484C31.4904 53.352 32.0865 52.937 32.623 52.522C32.7422 52.4627 32.8614 52.4035 32.9807 52.4035C33.8152 52.2256 34.5305 51.9292 35.0074 51.1585C35.1863 50.8621 35.3055 50.5064 35.067 50.1507C35.1267 50.0914 35.1267 49.9728 35.1863 49.9135L35.2459 49.8543C36.7361 47.7793 37.5111 45.5266 37.6899 42.9774C37.7495 41.9695 37.6899 40.9617 37.5111 39.9539C37.213 38.3532 36.6765 36.9304 35.7824 35.5669C35.067 34.3812 34.1729 33.3734 33.0999 32.4841C31.8481 31.417 30.4174 30.5871 28.8675 30.1128C28.2714 29.2828 27.7349 29.105 26.9004 29.4607Z" fill="#70B900"/>
<path d="M12.5938 49.6764C12.5938 49.0836 12.4149 48.4908 12.3553 47.8979C12.2361 47.0087 12.1169 46.1787 11.9977 45.2894C11.8784 44.2816 11.6996 43.2145 11.5804 42.2067C11.5208 41.6731 11.4015 41.1989 11.3419 40.6653C11.3419 40.5467 11.4015 40.4282 11.4015 40.3689C11.4015 40.4282 11.4612 40.4875 11.4612 40.5467C11.7592 42.681 12.1169 44.8152 12.4149 47.0087C12.5341 48.0165 12.713 49.0836 12.8322 50.0914C12.7726 50.0914 12.7726 50.0914 12.713 50.0914C12.6534 49.9729 12.6534 49.8543 12.5938 49.6764Z" fill="#62A301"/>
<path d="M12.713 50.0914C12.7726 50.0914 12.7726 50.0914 12.8322 50.0914C12.8918 50.3878 13.011 50.6843 13.3687 50.8028C13.3687 51.0993 13.6667 51.2178 13.786 51.455C13.8456 51.5735 13.9648 51.6328 13.9648 51.7514C13.8456 51.7514 13.786 51.7514 13.6667 51.7514C13.1302 51.7514 12.8322 51.5142 12.7726 50.9214C12.7726 50.625 12.713 50.3878 12.713 50.0914Z" fill="#70B900"/>
<path d="M35.1863 49.8543C35.1267 49.9136 35.1267 50.0321 35.0671 50.0914C34.4113 51.0992 33.4576 51.4549 32.325 51.5142C30.9539 51.5735 29.5829 51.3957 28.2118 51.2771C26.185 51.0992 24.1583 50.5657 22.1911 50.1507C21.3566 49.9728 20.522 49.9136 19.6875 49.8543C19.5086 49.8543 19.3894 49.795 19.3894 49.5579C19.3298 46.4751 19.2702 43.3924 19.2106 40.3096C19.2106 40.0725 19.2702 39.9539 19.5086 39.8946C20.3432 39.7168 21.1181 39.3611 21.8334 38.9461C22.5488 38.4718 23.1449 37.8197 23.4429 36.9897C24.039 35.4483 24.6948 33.9662 25.4697 32.4842C25.7678 31.9506 25.9466 31.3578 26.1254 30.7649C26.3043 30.2907 26.5427 29.8164 26.9004 29.4607C27.6753 29.105 28.2714 29.2828 28.8675 29.9942C28.9868 30.2314 29.106 30.4685 29.1656 30.7649C29.404 32.0099 29.2848 33.1956 28.9867 34.3812C28.7483 35.2112 28.4503 35.9819 28.2118 36.8119C28.033 37.464 28.2118 37.8197 28.8675 37.9383C29.1656 37.9975 29.4636 38.0568 29.7617 38.0568C31.3712 37.9975 32.9211 37.9383 34.5306 37.879C35.0671 37.879 35.6036 37.9975 36.0208 38.294C36.9746 38.8275 37.6899 40.3689 36.4977 41.4953C36.3785 41.6138 36.3189 41.7324 36.4381 41.9103C36.7362 42.266 36.915 42.681 36.9746 43.1552C37.0342 43.9852 36.6169 44.578 36.0208 45.0523C35.7228 45.2894 35.6632 45.408 35.9016 45.7637C36.4381 46.4751 36.3189 47.1865 35.7228 47.8386C35.4843 48.0758 35.2459 48.2536 35.0074 48.4315C34.8286 48.55 34.8286 48.6093 34.9478 48.7872C35.1267 48.965 35.2459 49.38 35.1863 49.8543Z" fill="#FEFEFD"/>
<path d="M13.3687 50.8028C13.011 50.6843 12.8918 50.4471 12.8322 50.0914C12.713 49.0836 12.5341 48.0165 12.4149 47.0087C12.1169 44.8745 11.8188 42.7403 11.4611 40.5468C11.4611 40.4875 11.4015 40.4282 11.4015 40.3689C11.4015 40.2503 11.4015 40.1911 11.4015 40.0725C11.3419 39.4204 11.5208 39.2425 12.1765 39.1832C13.6667 39.1832 15.2166 39.1832 16.7069 39.1832C17.3626 39.1832 17.5415 39.4204 17.6011 40.0132C17.6011 43.3331 17.6011 46.5937 17.6011 49.9136C17.6011 50.5064 17.3626 50.7436 16.7665 50.7436C15.5743 50.8028 14.5013 50.8028 13.3687 50.8028Z" fill="#FEFEFD"/>
<path d="M35.1863 49.8543C35.2459 49.4393 35.1267 49.0243 34.8882 48.6093C34.769 48.4315 34.8286 48.3722 34.9478 48.2536C35.1863 48.0758 35.4247 47.8979 35.6632 47.6608C36.2593 47.0087 36.3785 46.3566 35.842 45.5859C35.6036 45.2302 35.6632 45.1116 35.9612 44.8745C36.5573 44.4002 36.9746 43.8074 36.915 42.9774C36.8554 42.5031 36.6766 42.0881 36.3785 41.7324C36.2593 41.5546 36.2593 41.4953 36.4381 41.3174C37.6303 40.1911 36.915 38.6497 35.9612 38.1161C35.4843 37.879 35.0074 37.7011 34.471 37.7011C32.8615 37.7604 31.3116 37.8197 29.7021 37.879C29.404 37.879 29.106 37.879 28.8079 37.7604C28.1522 37.5826 27.9734 37.2269 28.1522 36.634C28.3906 35.8041 28.6887 35.0334 28.9271 34.2034C29.2848 33.0177 29.404 31.8321 29.106 30.5871C29.0464 30.35 28.9271 30.0535 28.8079 29.8164C30.4174 30.2907 31.7885 31.1206 33.0403 32.1878C34.1133 33.077 35.0074 34.1441 35.7228 35.2705C36.5573 36.634 37.0938 38.1161 37.4515 39.6575C37.6303 40.6653 37.6899 41.6731 37.6303 42.681C37.4515 45.1709 36.6766 47.4829 35.1863 49.5579C35.2459 49.795 35.2459 49.795 35.1863 49.8543Z" fill="#62A301"/>
</g>
<defs>
<clipPath id="clip0">
<rect width="120" height="66" fill="white"/>
</clipPath>
</defs>
</svg>
