<svg width="16" height="16" viewBox="2 0 16 16" fill="none" xmlns="http://www.w3.org/2000/svg">
    <path d="M11.4666 7.2665V4.33318C11.4666 2.31138 9.82102 0.666504 7.79994 0.666504C5.77742 0.666504 4.13327 2.31138 4.13327 4.33318V7.2665C3.32443 7.2665 2.66663 7.92358 2.66663 8.73318V13.8665C2.66663 14.6754 3.32443 15.3332 4.1333 15.3332H11.4666C12.2755 15.3332 12.9333 14.6754 12.9333 13.8665V8.73318C12.9333 7.92358 12.2755 7.2665 11.4666 7.2665ZM7.79994 12.3998C7.19274 12.3998 6.69994 11.907 6.69994 11.2998C6.69994 10.6926 7.19274 10.1998 7.79994 10.1998C8.40714 10.1998 8.89994 10.6926 8.89994 11.2998C8.89994 11.907 8.40714 12.3998 7.79994 12.3998ZM9.99994 7.2665H5.59995V4.33318C5.59995 3.12026 6.58702 2.13318 7.79994 2.13318C9.01286 2.13318 9.99994 3.12026 9.99994 4.33318V7.2665Z" fill="#829BAB"></path>
</svg>
