<svg width="17" height="16" viewBox="0 0 25 25" fill="none" xmlns="http://www.w3.org/2000/svg">
<path fill-rule="evenodd" clip-rule="evenodd" d="M6.53297 22.597L12.1035 19.22L17.6741 22.597C18.432 23.0564 19.3687 22.3758 19.166 21.513L17.6757 15.1716L22.6087 10.9172C23.2799 10.3384 22.9221 9.2372 22.0389 9.16341L15.5473 8.62109L13.0256 2.61483C12.6825 1.79766 11.5246 1.79766 11.1815 2.61483L8.65971 8.62109L2.16814 9.16341C1.28495 9.2372 0.927146 10.3384 1.5983 10.9172L6.53132 15.1716L5.04109 21.513C4.83834 22.3758 5.77507 23.0564 6.53297 22.597ZM17.1896 20.3606L12.1044 17.2779L7.0192 20.3606L8.37959 14.5716L3.87636 10.6879L9.80235 10.1928L12.1044 4.70986L14.4065 10.1928L20.3325 10.6879L15.8293 14.5716L17.1896 20.3606Z" fill="#F85A00"/>
</svg>
