<svg width="17" height="16" viewBox="0 0 16 16" fill="none" xmlns="http://www.w3.org/2000/svg">
<path d="M6.12261 5.63015C6.12261 5.63015 3.47374 5.92354 1.70671 6.11969C1.54745 6.13897 1.40662 6.24543 1.35381 6.40721C1.301 6.56899 1.35381 6.73748 1.47117 6.84394C2.78386 8.04179 4.75626 9.83565 4.75626 9.83565C4.75459 9.83565 4.21475 12.4451 3.85598 14.1862C3.82581 14.3438 3.88281 14.5106 4.02028 14.6103C4.15692 14.7101 4.33295 14.7117 4.47126 14.6338C6.01699 13.7553 8.33224 12.4342 8.33224 12.4342C8.33224 12.4342 10.6483 13.7553 12.1915 14.6346C12.3324 14.7117 12.5084 14.7101 12.645 14.6103C12.7825 14.5106 12.8395 14.3438 12.8085 14.187C12.4497 12.4451 11.9107 9.83565 11.9107 9.83565C11.9107 9.83565 13.8831 8.04179 15.1958 6.84645C15.3132 6.73664 15.3651 6.56815 15.3132 6.40721C15.2612 6.24626 15.1204 6.13981 14.9611 6.12136C13.1941 5.92354 10.5444 5.63015 10.5444 5.63015C10.5444 5.63015 9.44627 3.2009 8.71448 1.58141C8.64574 1.43639 8.50156 1.33496 8.33224 1.33496C8.16291 1.33496 8.01789 1.43723 7.95251 1.58141C7.21988 3.2009 6.12261 5.63015 6.12261 5.63015Z" fill="#F85A00"/>
</svg>
